<?xml version="1.0" encoding="utf-8"?>
<!-- Generator: Adobe Illustrator 27.0.0, SVG Export Plug-In . SVG Version: 6.00 Build 0)  -->
<svg version="1.1" id="レイヤー_1" xmlns="http://www.w3.org/2000/svg" xmlns:xlink="http://www.w3.org/1999/xlink" x="0px"
	 y="0px" viewBox="0 0 1000 1000" style="enable-background:new 0 0 1000 1000;" xml:space="preserve">
<style type="text/css">
	.st0{fill:#FFFFFF;}
</style>
<path class="st0" d="M493.7,601.9c-3.6,0-7.2-1.4-9.9-4.1l-350-350c-5.5-5.5-5.5-14.4,0-19.9l210-210c2.6-2.6,6.2-4.1,9.9-4.1h280
	c3.7,0,7.3,1.5,9.9,4.1l210,210c5.5,5.5,5.5,14.4,0,19.9l-210,210c-5.5,5.5-14.4,5.5-19.9,0l-70-70c-2.6-2.6-4.1-6.2-4.1-9.9
	s1.5-7.3,4.1-9.9l130.1-130.1l-50.1-50.1L503.7,317.8c-5.5,5.5-14.4,5.5-19.9,0l-70-70c-5.5-5.5-5.5-14.4,0-19.9L543.9,97.8
	l-50.1-50.1L303.6,237.9l270.1,270.1c2.6,2.6,4.1,6.2,4.1,9.9s-1.5,7.3-4.1,9.9l-70,70C500.9,600.6,497.3,601.9,493.7,601.9z
	 M163.6,237.9L493.7,568l50.1-50.1L273.8,247.8c-5.5-5.5-5.5-14.4,0-19.9l186-186H359.6L163.6,237.9z M583.6,377.9l50.1,50.1
	l190.1-190.1L627.9,41.9H527.7l46,46c5.5,5.5,5.5,14.4,0,19.9L443.6,237.9l50.1,50.1l130.1-130.1c2.6-2.6,6.2-4.1,9.9-4.1
	s7.3,1.5,9.9,4.1l70,70c5.5,5.5,5.5,14.4,0,19.9L583.6,377.9z"/>
<g>
	<path class="st0" d="M276.7,745.2c-2.4,0-4.5-0.8-6.3-2.5c-1.8-1.7-2.7-3.6-2.7-5.9v-62.2c0-3.9,1.1-6.9,3.4-9.1
		c2.3-2.2,5.3-3.3,9-3.3h31.2c2.7,0,4.7,0.7,6.2,2.2c1.5,1.5,2.2,3.5,2.2,6c0,2.3-0.8,4.2-2.4,5.8c-1.6,1.6-3.6,2.4-6,2.4h-21.6
		c-2.7,0-4,1.3-4,4v9c0,2.7,1.3,4,4,4h18.8c2.5,0,4.6,0.7,6.1,2.2c1.5,1.5,2.3,3.4,2.3,5.8c0,2.3-0.8,4.2-2.5,5.7
		c-1.7,1.5-3.6,2.3-5.9,2.3h-18.8c-2.7,0-4,1.3-4,4v21.2c0,2.3-0.9,4.2-2.7,5.9C281.2,744.4,279.1,745.2,276.7,745.2z"/>
	<path class="st0" d="M368.3,691.8c0-2.5,0.8-4.6,2.5-6.2c1.7-1.6,3.8-2.4,6.3-2.4c2.5,0,4.6,0.8,6.3,2.5c1.7,1.7,2.5,3.7,2.5,6.1
		V720c0,5.5-1.4,10.1-4.2,13.9s-6.4,6.6-10.8,8.5s-9.1,2.8-14,2.8c-4.8,0-9.4-0.9-13.8-2.8c-4.4-1.9-8-4.7-10.9-8.5
		c-2.9-3.8-4.3-8.4-4.3-13.9v-28.2c0-2.5,0.8-4.6,2.5-6.2c1.7-1.6,3.8-2.4,6.3-2.4c2.5,0,4.6,0.8,6.3,2.5c1.7,1.7,2.5,3.7,2.5,6.1
		v27.4c0,2.8,1.1,5.1,3.2,7c2.1,1.9,4.9,2.8,8.2,2.8c3.3,0,6.1-0.9,8.2-2.8c2.1-1.9,3.2-4.2,3.2-7V691.8z"/>
	<path class="st0" d="M409.4,745.2c-2.5,0-4.7-0.7-6.4-2.2c-1.7-1.5-2.6-3.3-2.6-5.6V663c0-2.1,0.8-4,2.5-5.5
		c1.7-1.5,3.8-2.3,6.5-2.3c2.5,0,4.6,0.8,6.2,2.3c1.6,1.5,2.4,3.4,2.4,5.7v34.4c0,1.6,0.5,2.4,1.4,2.4c0.3,0,0.8-0.3,1.6-0.8
		l19.4-14.4c1.6-1.1,3.3-1.6,5.2-1.6c2.3,0,4.1,0.8,5.6,2.4c1.5,1.6,2.2,3.5,2.2,5.6c0,2.9-1.3,5.3-4,7l-15.8,10.4
		c-1.3,0.9-2,1.9-2,3c0,1.1,0.5,1.9,1.6,2.6l18.2,16.4c1.2,0.9,2,2,2.4,3.2c0.4,1.2,0.6,2.3,0.6,3.4c0,2.1-0.8,4-2.5,5.6
		c-1.7,1.6-3.6,2.4-5.9,2.4c-2.3,0-4.3-0.9-6-2.6l-19.6-19.2c-0.4-0.4-0.9-0.6-1.4-0.6c-0.7,0-1,0.5-1,1.6v12.8
		c0,2.3-0.8,4.2-2.5,5.7C413.8,744.5,411.8,745.2,409.4,745.2z"/>
	<path class="st0" d="M502.9,691.8c0-2.5,0.8-4.6,2.5-6.2c1.7-1.6,3.8-2.4,6.3-2.4c2.5,0,4.6,0.8,6.3,2.5c1.7,1.7,2.5,3.7,2.5,6.1
		V720c0,5.5-1.4,10.1-4.2,13.9s-6.4,6.6-10.8,8.5s-9.1,2.8-14,2.8c-4.8,0-9.4-0.9-13.8-2.8c-4.4-1.9-8-4.7-10.9-8.5
		c-2.9-3.8-4.3-8.4-4.3-13.9v-28.2c0-2.5,0.8-4.6,2.5-6.2c1.7-1.6,3.8-2.4,6.3-2.4c2.5,0,4.6,0.8,6.3,2.5c1.7,1.7,2.5,3.7,2.5,6.1
		v27.4c0,2.8,1.1,5.1,3.2,7c2.1,1.9,4.9,2.8,8.2,2.8c3.3,0,6.1-0.9,8.2-2.8c2.1-1.9,3.2-4.2,3.2-7V691.8z"/>
	<path class="st0" d="M563,745.2c-5.7,0-11-1.3-15.8-4c-4.8-2.7-8.6-6.4-11.5-11.1c-2.9-4.7-4.3-10.1-4.3-16.1
		c0-6.1,1.4-11.5,4.3-16.1c2.9-4.6,6.7-8.2,11.5-10.8c4.8-2.6,10.1-3.9,15.8-3.9c5.9,0,11.2,1.3,15.9,3.9c4.7,2.6,8.5,6.2,11.3,10.8
		s4.2,10,4.2,16.1c0,6-1.4,11.4-4.2,16.1c-2.8,4.7-6.6,8.4-11.3,11.1C574.1,743.9,568.8,745.2,563,745.2z M563,729
		c4.1,0,7.5-1.4,10.1-4.3c2.6-2.9,3.9-6.4,3.9-10.7c0-4.4-1.3-7.9-3.9-10.6c-2.6-2.7-6-4-10.1-4c-4,0-7.4,1.3-10.1,4
		c-2.7,2.7-4.1,6.2-4.1,10.6c0,4.3,1.4,7.8,4.1,10.7C555.6,727.6,559,729,563,729z"/>
	<path class="st0" d="M614.9,745.2c-2.5,0-4.7-0.7-6.4-2.2c-1.7-1.5-2.6-3.3-2.6-5.6V663c0-2.1,0.8-4,2.5-5.5
		c1.7-1.5,3.8-2.3,6.5-2.3c2.5,0,4.6,0.8,6.2,2.3c1.6,1.5,2.4,3.4,2.4,5.7v34.4c0,1.6,0.5,2.4,1.4,2.4c0.3,0,0.8-0.3,1.6-0.8
		l19.4-14.4c1.6-1.1,3.3-1.6,5.2-1.6c2.3,0,4.1,0.8,5.6,2.4c1.5,1.6,2.2,3.5,2.2,5.6c0,2.9-1.3,5.3-4,7l-15.8,10.4
		c-1.3,0.9-2,1.9-2,3c0,1.1,0.5,1.9,1.6,2.6l18.2,16.4c1.2,0.9,2,2,2.4,3.2c0.4,1.2,0.6,2.3,0.6,3.4c0,2.1-0.8,4-2.5,5.6
		c-1.7,1.6-3.6,2.4-5.9,2.4c-2.3,0-4.3-0.9-6-2.6l-19.6-19.2c-0.4-0.4-0.9-0.6-1.4-0.6c-0.7,0-1,0.5-1,1.6v12.8
		c0,2.3-0.8,4.2-2.5,5.7C619.3,744.5,617.3,745.2,614.9,745.2z"/>
	<path class="st0" d="M695.2,745.2c-8.9,0-16.2-2.8-21.7-8.5c-5.5-5.7-8.3-13.2-8.3-22.7c0-9.5,2.7-17,8.1-22.5
		c5.4-5.5,12.5-8.3,21.3-8.3c6.3,0,11.7,2.2,16.4,6.6c0.5-1.6,1.5-2.9,3-4c1.5-1.1,3.2-1.6,5.2-1.6c2.7,0,4.8,0.8,6.5,2.3
		c1.7,1.5,2.5,3.4,2.5,5.5v45.4c0,2.3-0.8,4.1-2.5,5.6c-1.7,1.5-3.8,2.2-6.5,2.2c-4.4,0-7.1-1.9-8.2-5.8
		C706.8,743.3,701.5,745.2,695.2,745.2z M696.7,729c4.3,0,7.7-1.4,10.2-4.3c2.5-2.9,3.8-6.4,3.8-10.7c0-4.4-1.3-7.9-3.8-10.6
		c-2.5-2.7-5.9-4-10.2-4c-4.1,0-7.5,1.3-10.1,4c-2.6,2.7-3.9,6.2-3.9,10.6c0,4.3,1.3,7.8,3.9,10.7C689.2,727.6,692.5,729,696.7,729z
		"/>
	<path class="st0" d="M154,865.2c-2.4,0-4.5-0.8-6.2-2.5c-1.7-1.7-2.6-3.6-2.6-5.9v-61.6c0-3.9,1.2-7,3.7-9.4
		c2.5-2.4,5.8-3.6,9.9-3.6h20c8.1,0,14.7,2.4,19.7,7.2s7.5,10.8,7.5,18c0,4.3-1.1,8.3-3.4,12c-2.3,3.7-5.5,6.7-9.8,9
		c1.9,0.9,3.6,2.2,5.1,3.8c1.5,1.6,2.8,3.5,3.7,5.8l6.6,15.2c0.7,1.6,1,2.9,1,4c0,2.4-0.9,4.4-2.8,5.9c-1.9,1.5-3.9,2.3-6.2,2.3
		c-1.5,0-2.9-0.4-4.3-1.2c-1.4-0.8-2.5-2.1-3.3-3.8l-7.6-18.2c-1.3-3.2-3.1-5.5-5.3-6.9c-2.2-1.4-4.8-2.1-7.7-2.1h-5.2
		c-2.7,0-4,1.3-4,4v19.6c0,2.3-0.9,4.2-2.6,5.9C158.5,864.4,156.4,865.2,154,865.2z M165.8,818.2H178c3.3,0,6-0.9,7.9-2.8
		c1.9-1.9,2.9-4.3,2.9-7.2c0-3.1-1-5.5-2.9-7.3c-1.9-1.8-4.6-2.7-7.9-2.7h-12.2c-2,0-3,1-3,3v14
		C162.8,817.2,163.8,818.2,165.8,818.2z"/>
	<path class="st0" d="M260.2,811.8c0-2.5,0.8-4.6,2.5-6.2c1.7-1.6,3.8-2.4,6.3-2.4c2.5,0,4.6,0.8,6.3,2.5c1.7,1.7,2.5,3.7,2.5,6.1
		V840c0,5.5-1.4,10.1-4.2,13.9s-6.4,6.6-10.8,8.5s-9.1,2.8-14,2.8c-4.8,0-9.4-0.9-13.8-2.8c-4.4-1.9-8-4.7-10.9-8.5
		c-2.9-3.8-4.3-8.4-4.3-13.9v-28.2c0-2.5,0.8-4.6,2.5-6.2c1.7-1.6,3.8-2.4,6.3-2.4c2.5,0,4.6,0.8,6.3,2.5c1.7,1.7,2.5,3.7,2.5,6.1
		v27.4c0,2.8,1.1,5.1,3.2,7c2.1,1.9,4.9,2.8,8.2,2.8c3.3,0,6.1-0.9,8.2-2.8c2.1-1.9,3.2-4.2,3.2-7V811.8z"/>
	<path class="st0" d="M324.7,865.2c-6,0-11.1-1.9-15.2-5.6c-1.2,3.7-3.9,5.6-8.2,5.6c-2.5,0-4.7-0.7-6.4-2.2
		c-1.7-1.5-2.6-3.3-2.6-5.6V783c0-2.1,0.8-4,2.5-5.5c1.7-1.5,3.8-2.3,6.5-2.3c2.5,0,4.6,0.8,6.2,2.3c1.6,1.5,2.4,3.4,2.4,5.7v26.2
		c4.5-4.1,9.7-6.2,15.4-6.2c8.8,0,15.8,2.8,21.1,8.3c5.3,5.5,7.9,13,7.9,22.5c0,9.5-2.7,17-8,22.7
		C341,862.4,333.8,865.2,324.7,865.2z M323.3,849c4.1,0,7.4-1.4,9.9-4.3c2.5-2.9,3.7-6.4,3.7-10.7c0-4.4-1.2-7.9-3.7-10.6
		c-2.5-2.7-5.8-4-9.9-4c-4,0-7.2,1.3-9.7,4c-2.5,2.7-3.7,6.2-3.7,10.6c0,4.3,1.2,7.8,3.7,10.7C316.1,847.6,319.3,849,323.3,849z"/>
	<path class="st0" d="M359.7,811.2c0-2.7,0.9-4.7,2.8-6c1.9-1.3,4-2,6.4-2c1.9,0,3.5,0.5,4.9,1.5c1.4,1,2.4,2.4,2.9,4.1l12.4,30.2
		c0.7,1.7,1.6,2.6,2.8,2.6s2.1-0.9,2.6-2.6l10.8-30.2c0.7-1.9,1.8-3.3,3.3-4.2c1.5-0.9,3.2-1.4,4.9-1.4c2.3,0,4.4,0.7,6.3,2.2
		c1.9,1.5,2.9,3.4,2.9,5.8c0,1.3-0.3,2.6-0.8,3.8l-31.2,72c-0.9,2-2.1,3.4-3.5,4.3c-1.4,0.9-2.8,1.3-4.3,1.3c-2.4,0-4.6-0.8-6.5-2.5
		c-1.9-1.7-2.9-3.6-2.9-5.9c0-1.2,0.3-2.3,0.8-3.2l10.8-19.2c-2.3-0.7-4.1-2.3-5.4-5l-19.4-42C359.9,813.6,359.7,812.4,359.7,811.2z
		"/>
	<path class="st0" d="M440.8,794.2c-2.8,0-5.2-0.9-7.2-2.7c-2-1.8-3-4.1-3-6.9c0-2.5,1-4.7,3-6.6c2-1.9,4.4-2.8,7.2-2.8
		c2.7,0,5,0.9,6.9,2.8c1.9,1.9,2.9,4.1,2.9,6.6c0,2.8-1,5.1-2.9,6.9C445.8,793.3,443.5,794.2,440.8,794.2z M440.8,865.2
		c-2.5,0-4.7-0.7-6.4-2.2c-1.7-1.5-2.6-3.3-2.6-5.6V812c0-2.1,0.8-4,2.5-5.5c1.7-1.5,3.8-2.3,6.5-2.3c2.7,0,4.8,0.8,6.3,2.3
		c1.5,1.5,2.3,3.4,2.3,5.7v45c0,2.3-0.8,4.2-2.5,5.7C445.3,864.5,443.2,865.2,440.8,865.2z"/>
	<path class="st0" d="M486.8,865.2c-9.1,0-16.5-1.9-22.4-5.6c-1.2-0.8-2.1-1.8-2.6-2.9c-0.5-1.1-0.8-2.2-0.8-3.3
		c0-2.3,0.8-4.3,2.3-6.2c1.5-1.9,3.4-2.8,5.7-2.8c1.1,0,2.1,0.3,3.2,0.8c2.4,1.1,5.1,2,8.2,2.7c3.1,0.7,5.9,1.1,8.4,1.1
		c4.9,0,7.4-1.1,7.4-3.4c0-1.3-0.6-2.5-1.8-3.5c-1.2-1-4-1.7-8.4-2.1c-1.7-0.1-4-0.4-6.7-0.8c-2.7-0.4-5.4-1.2-8.1-2.3
		c-2.7-1.1-4.9-2.8-6.7-5.1c-1.8-2.3-2.7-5.3-2.7-9.2c0-6,2.3-10.7,6.8-14.2c4.5-3.5,10.6-5.2,18.2-5.2c4.4,0,8.6,0.5,12.5,1.4
		c3.9,0.9,6.9,2.3,8.9,4.2c1.9,1.7,2.8,3.7,2.8,6c0,2-0.7,3.8-2.2,5.4c-1.5,1.6-3.3,2.4-5.6,2.4c-1.2,0-2.3-0.3-3.4-0.8
		c-1.6-1.1-3.6-1.9-6.1-2.4c-2.5-0.5-5-0.8-7.5-0.8c-5.1,0-7.6,1.1-7.6,3.2c0,0.9,0.5,1.8,1.5,2.5c1,0.7,3.3,1.4,6.9,1.9
		c2.3,0.3,4.9,0.6,7.8,1.1c2.9,0.5,5.8,1.3,8.5,2.4c2.7,1.1,5,3,6.9,5.5c1.9,2.5,2.8,6,2.8,10.4c0,6-2.4,10.8-7.2,14.3
		S494.6,865.2,486.8,865.2z"/>
	<path class="st0" d="M550.2,865.2c-5.7,0-10.5-1.7-14.2-5c-3.7-3.3-5.6-8.5-5.6-15.4v-21.6c0-1.3-0.7-2-2-2h-3
		c-2.4,0-4.2-0.7-5.4-2.2c-1.2-1.5-1.8-3.3-1.8-5.6c0-2.4,0.6-4.4,1.8-5.9c1.2-1.5,3-2.3,5.4-2.3h3c1.3,0,2-0.7,2-2v-14.8
		c0-2.3,0.8-4.2,2.4-5.8c1.6-1.6,3.7-2.4,6.2-2.4c2.5,0,4.6,0.8,6.3,2.3c1.7,1.5,2.5,3.5,2.5,5.9v14.8c0,1.3,0.7,2,2,2h7.4
		c2.3,0,4.2,0.8,5.7,2.4c1.5,1.6,2.3,3.5,2.3,5.8c0,2.3-0.8,4.1-2.3,5.6c-1.5,1.5-3.5,2.2-5.9,2.2h-7.2c-1.3,0-2,0.7-2,2V842
		c0,2.4,0.4,4.1,1.3,5c0.9,0.9,2,1.4,3.3,1.4c0.5,0,1.6-0.2,3.2-0.5c1.6-0.3,2.6-0.5,3-0.5c2.1,0,3.9,0.8,5.4,2.4
		c1.5,1.6,2.2,3.5,2.2,5.8c0,1.7-0.5,3.3-1.5,4.8c-1,1.5-2.6,2.5-4.7,3.2c-1.7,0.5-3.4,0.9-5,1.2
		C553.4,865.1,551.8,865.2,550.2,865.2z"/>
	<path class="st0" d="M586.7,865.2c-2.5,0-4.7-0.8-6.4-2.4c-1.7-1.6-2.6-3.7-2.6-6.2v-66.8c0-2.5,0.9-4.6,2.6-6.2
		c1.7-1.6,3.9-2.4,6.4-2.4c2.7,0,4.8,0.8,6.5,2.4c1.7,1.6,2.5,3.7,2.5,6.2v17.6c0,2.3,0.6,3.4,1.8,3.4c0.7,0,1.4-0.5,2.2-1.4
		l23.4-25c2.1-2.1,4.4-3.2,6.8-3.2c2.5,0,4.7,0.9,6.6,2.6c1.9,1.7,2.8,3.8,2.8,6.2c0,2.1-0.9,4.1-2.6,5.8l-23.8,23.8l26.6,30.4
		c0.9,0.9,1.5,1.9,1.8,3c0.3,1.1,0.4,2.1,0.4,3.2c0,2.4-0.9,4.5-2.8,6.3c-1.9,1.8-4,2.7-6.4,2.7c-2.5,0-4.9-1.1-7-3.2l-24.8-30.4
		l-1.6,1.6c-1.5,1.5-2.4,2.9-2.8,4.2c-0.4,1.3-0.6,3-0.6,5v14.2c0,2.5-0.8,4.6-2.5,6.2C591.5,864.4,589.3,865.2,586.7,865.2z"/>
	<path class="st0" d="M677.4,865.2c-8.9,0-16.2-2.8-21.7-8.5c-5.5-5.7-8.3-13.2-8.3-22.7c0-9.5,2.7-17,8.1-22.5
		c5.4-5.5,12.5-8.3,21.3-8.3c6.3,0,11.7,2.2,16.4,6.6c0.5-1.6,1.5-2.9,3-4c1.5-1.1,3.2-1.6,5.2-1.6c2.7,0,4.8,0.8,6.5,2.3
		c1.7,1.5,2.5,3.4,2.5,5.5v45.4c0,2.3-0.8,4.1-2.5,5.6c-1.7,1.5-3.8,2.2-6.5,2.2c-4.4,0-7.1-1.9-8.2-5.8
		C689,863.3,683.7,865.2,677.4,865.2z M678.8,849c4.3,0,7.7-1.4,10.2-4.3c2.5-2.9,3.8-6.4,3.8-10.7c0-4.4-1.3-7.9-3.8-10.6
		c-2.5-2.7-5.9-4-10.2-4c-4.1,0-7.5,1.3-10.1,4c-2.6,2.7-3.9,6.2-3.9,10.6c0,4.3,1.3,7.8,3.9,10.7C671.3,847.6,674.7,849,678.8,849z
		"/>
	<path class="st0" d="M734.2,794.2c-2.8,0-5.2-0.9-7.2-2.7c-2-1.8-3-4.1-3-6.9c0-2.5,1-4.7,3-6.6c2-1.9,4.4-2.8,7.2-2.8
		c2.7,0,5,0.9,6.9,2.8c1.9,1.9,2.9,4.1,2.9,6.6c0,2.8-1,5.1-2.9,6.9C739.2,793.3,736.9,794.2,734.2,794.2z M734.2,865.2
		c-2.5,0-4.7-0.7-6.4-2.2c-1.7-1.5-2.6-3.3-2.6-5.6V812c0-2.1,0.8-4,2.5-5.5c1.7-1.5,3.8-2.3,6.5-2.3c2.7,0,4.8,0.8,6.3,2.3
		c1.5,1.5,2.3,3.4,2.3,5.7v45c0,2.3-0.8,4.2-2.5,5.7C738.7,864.5,736.6,865.2,734.2,865.2z"/>
	<path class="st0" d="M783.7,892.2c-3.7,0-7.3-0.4-10.8-1.1c-3.5-0.7-6.6-1.8-9.4-3.3c-3.2-1.7-4.8-4.4-4.8-8c0-2.3,0.8-4.2,2.4-5.9
		c1.6-1.7,3.5-2.5,5.6-2.5c1.7,0,3.3,0.4,4.6,1.2c2.1,1.2,4.4,2.1,6.7,2.6c2.3,0.5,4.6,0.8,6.9,0.8c5.1,0,8.8-1.1,11.3-3.4
		c2.5-2.3,3.7-5.3,3.7-9V859c-4.3,4.1-9.5,6.2-15.8,6.2c-8.9,0-16.1-2.8-21.5-8.5c-5.4-5.7-8.1-13.2-8.1-22.7c0-9.5,2.6-17,7.9-22.5
		c5.3-5.5,12.3-8.3,21.1-8.3c6.4,0,11.9,2.5,16.6,7.4c0.4-1.9,1.4-3.4,2.9-4.6c1.5-1.2,3.4-1.8,5.7-1.8c2.7,0,4.8,0.8,6.4,2.4
		c1.6,1.6,2.4,3.6,2.4,6V864c0,8.5-3,15.4-8.9,20.5C802.7,889.7,794.4,892.2,783.7,892.2z M785.5,849c4,0,7.2-1.4,9.7-4.3
		c2.5-2.9,3.7-6.4,3.7-10.7c0-4.4-1.2-7.9-3.7-10.6c-2.5-2.7-5.7-4-9.7-4c-4.1,0-7.4,1.3-9.9,4c-2.5,2.7-3.7,6.2-3.7,10.6
		c0,4.3,1.2,7.8,3.7,10.7C778.1,847.6,781.4,849,785.5,849z"/>
	<path class="st0" d="M840.9,794.2c-2.8,0-5.2-0.9-7.2-2.7c-2-1.8-3-4.1-3-6.9c0-2.5,1-4.7,3-6.6c2-1.9,4.4-2.8,7.2-2.8
		c2.7,0,5,0.9,6.9,2.8c1.9,1.9,2.9,4.1,2.9,6.6c0,2.8-1,5.1-2.9,6.9C845.8,793.3,843.5,794.2,840.9,794.2z M840.9,865.2
		c-2.5,0-4.7-0.7-6.4-2.2c-1.7-1.5-2.6-3.3-2.6-5.6V812c0-2.1,0.8-4,2.5-5.5c1.7-1.5,3.8-2.3,6.5-2.3c2.7,0,4.8,0.8,6.3,2.3
		c1.5,1.5,2.3,3.4,2.3,5.7v45c0,2.3-0.8,4.2-2.5,5.7C845.3,864.5,843.3,865.2,840.9,865.2z"/>
	<path class="st0" d="M433.3,942.6c0-13.1,2.5-23.2,7.5-30.5c5-7.3,12.4-10.9,22.3-10.9c10,0,17.5,3.6,22.6,10.9
		c5.1,7.3,7.6,17.4,7.6,30.3c0,12.9-2.5,23.3-7.6,31.1c-5.1,7.8-12.6,11.7-22.6,11.7c-9.9,0-17.3-3.8-22.3-11.4
		C435.8,966.2,433.3,955.8,433.3,942.6z M450.9,942.6c0,8.7,0.9,15.2,2.7,19.5c1.8,4.3,5,6.5,9.5,6.5c4.7,0,7.9-2.3,9.8-6.8
		c1.9-4.5,2.8-11.1,2.8-19.6c0-8.5-0.9-14.7-2.7-18.5s-5-5.7-9.7-5.7c-4.5,0-7.7,1.9-9.6,5.8C451.9,927.7,450.9,934,450.9,942.6z"/>
	<path class="st0" d="M532,985.2c-6.7-0.1-12.5-1.4-17.4-3.8c-4.9-2.4-8.5-5.8-10.8-10.2c-0.8-1.6-1.2-3-1.2-4.2
		c0-2.5,1.1-4.5,3.2-6c2.1-1.5,4.3-2.2,6.6-2.2c1.5,0,2.8,0.3,4,0.8c1.2,0.5,2.1,1.5,2.6,2.8c2.4,5.2,6.9,7.8,13.6,7.8
		c3.5,0,6.4-1.1,8.7-3.3c2.3-2.2,3.5-5,3.5-8.3c0-7.7-5.4-11.4-16.2-11c-2.4,0.1-4.3-0.5-5.8-1.9c-1.5-1.4-2.2-3.2-2.2-5.5
		c0-2.3,0.7-4.1,2.1-5.4c1.4-1.3,3.2-2,5.3-2c4.8,0,8.2-0.7,10.1-2c1.9-1.3,2.9-3.7,2.9-7c0-2.7-0.9-4.6-2.6-5.9
		c-1.7-1.3-3.7-1.9-6-1.9c-2.1,0-4.2,0.5-6.2,1.4c-2,0.9-3.6,2.3-4.8,4c-0.9,1.3-2,2.2-3.2,2.7c-1.2,0.5-2.5,0.7-3.8,0.7
		c-2.3,0-4.3-0.7-6.1-2.1c-1.8-1.4-2.7-3.2-2.7-5.5c0-0.9,0.2-1.9,0.6-2.8c2.1-4.3,5.6-7.5,10.3-9.8c4.7-2.3,10-3.4,15.7-3.4
		c7.9,0,14.2,2,19,6.1c4.8,4.1,7.2,9.4,7.2,16.1c0,6.3-2.5,11.5-7.4,15.8c3.5,1.7,6.3,4.4,8.4,7.9c2.1,3.5,3.2,7.2,3.2,11.1
		c0,8.1-2.8,14.7-8.5,19.7C548.4,982.9,541,985.4,532,985.2z"/>
</g>
</svg>
