<?xml version="1.0" encoding="utf-8"?>
<!-- Generator: Adobe Illustrator 26.4.1, SVG Export Plug-In . SVG Version: 6.00 Build 0)  -->
<svg version="1.1" id="レイヤー_1" xmlns="http://www.w3.org/2000/svg" xmlns:xlink="http://www.w3.org/1999/xlink" x="0px"
	 y="0px" viewBox="0 0 960 960" style="enable-background:new 0 0 960 960;" xml:space="preserve">
<style type="text/css">
	.st0{fill:#FFFFFF;}
</style>
<path class="st0" d="M473.8,651.9c-3.6,0-7.2-1.4-9.9-4.1l-350-350c-5.5-5.5-5.5-14.4,0-19.9l210-210c2.6-2.6,6.2-4.1,9.9-4.1h280
	c3.7,0,7.3,1.5,9.9,4.1l210,210c5.5,5.5,5.5,14.4,0,19.9l-210,210c-2.6,2.6-6.2,4.1-9.9,4.1s-7.3-1.5-9.9-4.1l-70-70
	c-5.5-5.5-5.5-14.4,0-19.9l130.1-130.1l-50.1-50.1L483.7,367.7c-5.5,5.5-14.4,5.5-19.9,0l-70-70c-5.5-5.5-5.5-14.4,0-19.9
	l130.1-130.1l-50.1-50.1L283.7,287.8l270.1,270.1c2.6,2.6,4.1,6.2,4.1,9.9s-1.5,7.3-4.1,9.9l-70,70
	C481,650.5,477.4,651.9,473.8,651.9z M143.7,287.8l330.1,330.1l50.1-50.1L253.8,297.7c-5.5-5.5-5.5-14.4,0-19.9l186-186H339.6
	L143.7,287.8z M563.7,427.8l50.1,50.1l190.1-190.1L608,91.8H507.7l46,46c2.6,2.6,4.1,6.2,4.1,9.9s-1.5,7.3-4.1,9.9L423.7,287.8
	l50.1,50.1l130.1-130.1c5.5-5.5,14.4-5.5,19.9,0l70,70c2.6,2.6,4.1,6.2,4.1,9.9s-1.5,7.3-4.1,9.9L563.7,427.8z"/>
<g>
	<g>
		<path class="st0" d="M257,789.9c-2.4,0-4.6-0.8-6.4-2.5c-1.8-1.7-2.7-3.7-2.7-6v-63c0-3.9,1.1-7,3.4-9.2c2.3-2.2,5.3-3.3,9.1-3.3
			H292c2.7,0,4.8,0.7,6.3,2.2c1.5,1.5,2.2,3.5,2.2,6.1c0,2.3-0.8,4.3-2.4,5.9c-1.6,1.6-3.6,2.4-6.1,2.4h-21.9c-2.7,0-4,1.4-4,4v9.1
			c0,2.7,1.3,4,4,4h19c2.6,0,4.6,0.7,6.2,2.2c1.6,1.5,2.3,3.4,2.3,5.9c0,2.3-0.8,4.2-2.5,5.8c-1.7,1.6-3.7,2.3-6,2.3h-19
			c-2.7,0-4,1.4-4,4v21.5c0,2.3-0.9,4.3-2.7,6C261.5,789.1,259.4,789.9,257,789.9z"/>
		<path class="st0" d="M348.8,735.8c0-2.6,0.8-4.7,2.5-6.3c1.7-1.6,3.8-2.4,6.4-2.4c2.6,0,4.7,0.8,6.4,2.5c1.7,1.7,2.5,3.7,2.5,6.2
			v28.6c0,5.5-1.4,10.2-4.3,14.1c-2.8,3.8-6.5,6.7-10.9,8.6c-4.5,1.9-9.2,2.8-14.2,2.8c-4.9,0-9.5-0.9-14-2.8
			c-4.5-1.9-8.1-4.8-11-8.6c-2.9-3.8-4.4-8.5-4.4-14.1v-28.6c0-2.6,0.8-4.7,2.5-6.3c1.7-1.6,3.8-2.4,6.4-2.4c2.6,0,4.7,0.8,6.4,2.5
			c1.7,1.7,2.5,3.7,2.5,6.2v27.7c0,2.8,1.1,5.2,3.2,7.1c2.2,1.9,4.9,2.8,8.3,2.8c3.4,0,6.1-0.9,8.3-2.8c2.2-1.9,3.2-4.3,3.2-7.1
			V735.8z"/>
		<path class="st0" d="M389.3,789.9c-2.6,0-4.7-0.7-6.5-2.2c-1.8-1.5-2.6-3.4-2.6-5.7v-75.3c0-2.2,0.8-4,2.5-5.6
			c1.7-1.6,3.9-2.3,6.6-2.3c2.6,0,4.7,0.8,6.3,2.3c1.6,1.6,2.4,3.5,2.4,5.8v34.8c0,1.6,0.5,2.4,1.4,2.4c0.3,0,0.8-0.3,1.6-0.8
			l19.6-14.6c1.6-1.1,3.4-1.6,5.3-1.6c2.3,0,4.2,0.8,5.7,2.4c1.5,1.6,2.2,3.5,2.2,5.7c0,3-1.4,5.3-4.1,7.1l-16,10.5
			c-1.4,0.9-2,2-2,3c0,1.1,0.5,2,1.6,2.6l18.4,16.6c1.2,0.9,2,2,2.4,3.2c0.4,1.2,0.6,2.4,0.6,3.4c0,2.2-0.8,4-2.5,5.7
			c-1.7,1.6-3.7,2.4-6,2.4c-2.3,0-4.3-0.9-6.1-2.6l-19.8-19.4c-0.4-0.4-0.9-0.6-1.4-0.6c-0.7,0-1,0.5-1,1.6v13
			c0,2.3-0.8,4.2-2.5,5.8C393.8,789.1,391.8,789.9,389.3,789.9z"/>
		<path class="st0" d="M483,735.8c0-2.6,0.8-4.7,2.5-6.3c1.7-1.6,3.8-2.4,6.4-2.4c2.6,0,4.7,0.8,6.4,2.5c1.7,1.7,2.5,3.7,2.5,6.2
			v28.6c0,5.5-1.4,10.2-4.3,14.1c-2.8,3.8-6.5,6.7-10.9,8.6c-4.5,1.9-9.2,2.8-14.2,2.8c-4.9,0-9.5-0.9-14-2.8
			c-4.5-1.9-8.1-4.8-11-8.6c-2.9-3.8-4.4-8.5-4.4-14.1v-28.6c0-2.6,0.8-4.7,2.5-6.3c1.7-1.6,3.8-2.4,6.4-2.4c2.6,0,4.7,0.8,6.4,2.5
			c1.7,1.7,2.5,3.7,2.5,6.2v27.7c0,2.8,1.1,5.2,3.2,7.1c2.2,1.9,4.9,2.8,8.3,2.8c3.4,0,6.1-0.9,8.3-2.8c2.2-1.9,3.2-4.3,3.2-7.1
			V735.8z"/>
		<path class="st0" d="M542.8,789.9c-5.8,0-11.1-1.4-16-4c-4.9-2.7-8.7-6.4-11.6-11.2c-2.9-4.8-4.4-10.2-4.4-16.3
			c0-6.2,1.4-11.6,4.4-16.3c2.9-4.7,6.8-8.3,11.6-10.9c4.9-2.6,10.2-3.9,16-3.9c5.9,0,11.3,1.3,16.1,3.9c4.8,2.6,8.6,6.3,11.4,10.9
			c2.8,4.7,4.3,10.1,4.3,16.3c0,6.1-1.4,11.5-4.3,16.3c-2.8,4.8-6.7,8.5-11.4,11.2C554.1,788.5,548.7,789.9,542.8,789.9z
			 M542.8,773.5c4.2,0,7.6-1.4,10.2-4.4c2.6-2.9,3.9-6.5,3.9-10.8c0-4.5-1.3-8-3.9-10.7c-2.6-2.7-6-4-10.2-4c-4,0-7.5,1.4-10.2,4
			c-2.8,2.7-4.2,6.3-4.2,10.7c0,4.3,1.4,7.9,4.2,10.8C535.3,772,538.8,773.5,542.8,773.5z"/>
		<path class="st0" d="M594.4,789.9c-2.6,0-4.7-0.7-6.5-2.2c-1.8-1.5-2.6-3.4-2.6-5.7v-75.3c0-2.2,0.8-4,2.5-5.6
			c1.7-1.6,3.9-2.3,6.6-2.3c2.6,0,4.7,0.8,6.3,2.3c1.6,1.6,2.4,3.5,2.4,5.8v34.8c0,1.6,0.5,2.4,1.4,2.4c0.3,0,0.8-0.3,1.6-0.8
			l19.6-14.6c1.6-1.1,3.4-1.6,5.3-1.6c2.3,0,4.2,0.8,5.7,2.4c1.5,1.6,2.2,3.5,2.2,5.7c0,3-1.4,5.3-4,7.1l-16,10.5c-1.4,0.9-2,2-2,3
			c0,1.1,0.5,2,1.6,2.6l18.4,16.6c1.2,0.9,2,2,2.4,3.2c0.4,1.2,0.6,2.4,0.6,3.4c0,2.2-0.8,4-2.5,5.7c-1.7,1.6-3.7,2.4-6,2.4
			c-2.3,0-4.3-0.9-6.1-2.6l-19.8-19.4c-0.4-0.4-0.9-0.6-1.4-0.6c-0.7,0-1,0.5-1,1.6v13c0,2.3-0.8,4.2-2.5,5.8
			C598.9,789.1,596.8,789.9,594.4,789.9z"/>
		<path class="st0" d="M674.7,789.9c-9,0-16.4-2.9-22-8.6c-5.6-5.7-8.4-13.4-8.4-23c0-9.6,2.7-17.2,8.2-22.8
			c5.5-5.6,12.7-8.4,21.6-8.4c6.3,0,11.9,2.2,16.6,6.7c0.5-1.6,1.6-3,3-4.1c1.5-1.1,3.2-1.6,5.3-1.6c2.7,0,4.9,0.8,6.6,2.3
			c1.7,1.6,2.5,3.4,2.5,5.6v46c0,2.3-0.8,4.2-2.5,5.7c-1.7,1.5-3.9,2.2-6.6,2.2c-4.5,0-7.2-2-8.3-5.9
			C686.4,787.9,681.1,789.9,674.7,789.9z M676.1,773.5c4.3,0,7.8-1.4,10.3-4.4c2.6-2.9,3.8-6.5,3.8-10.8c0-4.5-1.3-8-3.8-10.7
			c-2.6-2.7-6-4-10.3-4c-4.2,0-7.6,1.4-10.2,4c-2.6,2.7-3.9,6.3-3.9,10.7c0,4.3,1.3,7.9,3.9,10.8C668.6,772,672,773.5,676.1,773.5z"
			/>
		<path class="st0" d="M121,908c-2.4,0-4.5-0.8-6.3-2.5c-1.8-1.7-2.6-3.7-2.6-6v-62.4c0-3.9,1.2-7.1,3.7-9.5c2.5-2.4,5.8-3.6,10-3.6
			h20.2c8.2,0,14.9,2.4,19.9,7.3c5.1,4.9,7.6,10.9,7.6,18.2c0,4.3-1.1,8.4-3.4,12.2c-2.3,3.8-5.6,6.8-9.9,9.1
			c1.9,0.9,3.6,2.2,5.2,3.8c1.6,1.6,2.8,3.6,3.7,5.9l6.7,15.4c0.7,1.6,1,3,1,4c0,2.4-0.9,4.4-2.8,6c-1.9,1.6-4,2.3-6.3,2.3
			c-1.5,0-2.9-0.4-4.4-1.2c-1.4-0.8-2.5-2.1-3.3-3.8l-7.7-18.4c-1.4-3.2-3.1-5.6-5.4-7c-2.2-1.4-4.8-2.1-7.8-2.1h-5.3
			c-2.7,0-4,1.4-4,4v19.8c0,2.3-0.9,4.3-2.6,6C125.5,907.2,123.4,908,121,908z M132.9,860.4h12.4c3.4,0,6-0.9,8-2.8
			c2-1.9,2.9-4.3,2.9-7.3c0-3.1-1-5.6-2.9-7.4c-2-1.8-4.6-2.7-8-2.7h-12.4c-2,0-3,1-3,3v14.2C129.9,859.4,130.9,860.4,132.9,860.4z"
			/>
		<path class="st0" d="M227.5,854c0-2.6,0.8-4.7,2.5-6.3c1.7-1.6,3.8-2.4,6.4-2.4c2.6,0,4.7,0.8,6.4,2.5c1.7,1.7,2.5,3.7,2.5,6.2
			v28.6c0,5.5-1.4,10.2-4.3,14.1c-2.8,3.8-6.5,6.7-10.9,8.6c-4.5,1.9-9.2,2.8-14.2,2.8c-4.9,0-9.5-0.9-14-2.8
			c-4.5-1.9-8.1-4.8-11-8.6c-2.9-3.8-4.4-8.5-4.4-14.1V854c0-2.6,0.8-4.7,2.5-6.3c1.7-1.6,3.8-2.4,6.4-2.4c2.6,0,4.7,0.8,6.4,2.5
			c1.7,1.7,2.5,3.7,2.5,6.2v27.7c0,2.8,1.1,5.2,3.2,7.1c2.2,1.9,4.9,2.8,8.3,2.8c3.4,0,6.1-0.9,8.3-2.8c2.2-1.9,3.2-4.3,3.2-7.1V854
			z"/>
		<path class="st0" d="M291.7,908c-6.1,0-11.2-1.9-15.4-5.7c-1.2,3.8-4,5.7-8.3,5.7c-2.6,0-4.7-0.7-6.5-2.2
			c-1.8-1.5-2.6-3.4-2.6-5.7v-75.3c0-2.2,0.8-4,2.5-5.6c1.7-1.6,3.9-2.3,6.6-2.3c2.6,0,4.7,0.8,6.3,2.3c1.6,1.6,2.4,3.5,2.4,5.8
			v26.5c4.6-4.2,9.8-6.3,15.6-6.3c8.9,0,16,2.8,21.4,8.4c5.3,5.6,8,13.2,8,22.8c0,9.6-2.7,17.2-8.1,23
			C308.2,905.2,300.9,908,291.7,908z M290.3,891.6c4.2,0,7.5-1.4,10-4.4c2.5-2.9,3.7-6.5,3.7-10.8c0-4.5-1.2-8-3.7-10.7
			c-2.5-2.7-5.8-4-10-4c-4,0-7.3,1.4-9.8,4c-2.5,2.7-3.7,6.3-3.7,10.7c0,4.3,1.2,7.9,3.7,10.8C283,890.2,286.3,891.6,290.3,891.6z"
			/>
		<path class="st0" d="M326.2,853.3c0-2.7,0.9-4.7,2.8-6.1c1.9-1.3,4-2,6.5-2c1.9,0,3.5,0.5,5,1.5s2.4,2.4,2.9,4.2l12.6,30.6
			c0.7,1.8,1.6,2.6,2.8,2.6c1.2,0,2.1-0.9,2.6-2.6l10.9-30.6c0.7-1.9,1.8-3.3,3.3-4.3c1.6-0.9,3.2-1.4,5-1.4c2.3,0,4.4,0.7,6.4,2.2
			c2,1.5,2.9,3.4,2.9,5.9c0,1.4-0.3,2.6-0.8,3.8l-31.6,72.9c-0.9,2-2.1,3.5-3.5,4.4c-1.4,0.9-2.9,1.3-4.4,1.3
			c-2.4,0-4.6-0.8-6.6-2.5c-2-1.7-2.9-3.7-2.9-6c0-1.2,0.3-2.3,0.8-3.2l10.9-19.4c-2.3-0.7-4.1-2.4-5.5-5.1L326.8,857
			C326.4,855.8,326.2,854.6,326.2,853.3z"/>
		<path class="st0" d="M408.6,908c-2.6,0-4.7-0.8-6.5-2.4c-1.8-1.6-2.6-3.7-2.6-6.3v-67.6c0-2.6,0.9-4.7,2.6-6.3
			c1.8-1.6,3.9-2.4,6.5-2.4c2.7,0,4.9,0.8,6.6,2.4c1.7,1.6,2.5,3.7,2.5,6.3v17.8c0,2.3,0.6,3.4,1.8,3.4c0.7,0,1.4-0.5,2.2-1.4
			l23.7-25.3c2.2-2.2,4.5-3.2,6.9-3.2c2.6,0,4.8,0.9,6.7,2.6c1.9,1.8,2.8,3.8,2.8,6.3c0,2.2-0.9,4.1-2.6,5.9l-24.1,24.1l26.9,30.8
			c0.9,0.9,1.6,2,1.8,3c0.3,1.1,0.4,2.2,0.4,3.2c0,2.4-0.9,4.6-2.8,6.4c-1.9,1.8-4,2.7-6.5,2.7c-2.6,0-4.9-1.1-7.1-3.2L422.7,874
			l-1.6,1.6c-1.5,1.5-2.4,2.9-2.8,4.3c-0.4,1.4-0.6,3-0.6,5.1v14.4c0,2.6-0.8,4.7-2.5,6.3C413.5,907.2,411.3,908,408.6,908z"/>
		<path class="st0" d="M499.5,908c-9,0-16.4-2.9-22-8.6c-5.6-5.7-8.4-13.4-8.4-23c0-9.6,2.7-17.2,8.2-22.8
			c5.5-5.6,12.7-8.4,21.6-8.4c6.3,0,11.9,2.2,16.6,6.7c0.5-1.6,1.6-3,3-4.1c1.5-1.1,3.2-1.6,5.3-1.6c2.7,0,4.9,0.8,6.6,2.3
			c1.7,1.6,2.5,3.4,2.5,5.6v46c0,2.3-0.8,4.2-2.5,5.7c-1.7,1.5-3.9,2.2-6.6,2.2c-4.5,0-7.2-2-8.3-5.9
			C511.1,906.1,505.8,908,499.5,908z M500.9,891.6c4.3,0,7.8-1.4,10.3-4.4c2.6-2.9,3.8-6.5,3.8-10.8c0-4.5-1.3-8-3.8-10.7
			c-2.6-2.7-6-4-10.3-4c-4.2,0-7.6,1.4-10.2,4c-2.6,2.7-3.9,6.3-3.9,10.7c0,4.3,1.3,7.9,3.9,10.8
			C493.3,890.2,496.7,891.6,500.9,891.6z"/>
		<path class="st0" d="M556,836.1c-2.8,0-5.3-0.9-7.3-2.7c-2-1.8-3-4.2-3-7c0-2.6,1-4.8,3-6.7c2-1.9,4.5-2.8,7.3-2.8
			c2.7,0,5,0.9,7,2.8c2,1.9,2.9,4.1,2.9,6.7c0,2.8-1,5.2-2.9,7C561,835.2,558.7,836.1,556,836.1z M556,908c-2.6,0-4.7-0.7-6.5-2.2
			c-1.8-1.5-2.6-3.4-2.6-5.7v-46c0-2.2,0.8-4,2.5-5.6c1.7-1.6,3.9-2.3,6.6-2.3c2.7,0,4.8,0.8,6.4,2.3c1.6,1.6,2.3,3.5,2.3,5.8v45.6
			c0,2.3-0.8,4.2-2.5,5.8C560.4,907.2,558.4,908,556,908z"/>
		<path class="st0" d="M605,935.4c-3.8,0-7.4-0.4-10.9-1.1c-3.5-0.7-6.7-1.9-9.5-3.3c-3.2-1.8-4.9-4.5-4.9-8.1c0-2.3,0.8-4.3,2.4-6
			c1.6-1.7,3.5-2.5,5.7-2.5c1.8,0,3.3,0.4,4.7,1.2c2.2,1.2,4.4,2.1,6.8,2.6c2.4,0.5,4.7,0.8,7,0.8c5.1,0,8.9-1.1,11.4-3.4
			c2.5-2.3,3.7-5.3,3.7-9.1v-4.7c-4.3,4.2-9.7,6.3-16,6.3c-9,0-16.3-2.9-21.8-8.6c-5.5-5.7-8.2-13.4-8.2-23c0-9.6,2.7-17.2,8-22.8
			c5.3-5.6,12.5-8.4,21.4-8.4c6.5,0,12.1,2.5,16.8,7.5c0.4-1.9,1.4-3.4,2.9-4.7c1.6-1.2,3.5-1.8,5.8-1.8c2.7,0,4.9,0.8,6.5,2.4
			s2.4,3.6,2.4,6.1v52c0,8.6-3,15.6-9,20.8C624.3,932.8,615.8,935.4,605,935.4z M606.9,891.6c4,0,7.3-1.4,9.8-4.4
			c2.5-2.9,3.7-6.5,3.7-10.8c0-4.5-1.2-8-3.7-10.7c-2.5-2.7-5.8-4-9.8-4c-4.2,0-7.5,1.4-10,4c-2.5,2.7-3.7,6.3-3.7,10.7
			c0,4.3,1.2,7.9,3.7,10.8C599.3,890.2,602.7,891.6,606.9,891.6z"/>
		<path class="st0" d="M661.9,836.1c-2.8,0-5.3-0.9-7.3-2.7c-2-1.8-3-4.2-3-7c0-2.6,1-4.8,3-6.7c2-1.9,4.5-2.8,7.3-2.8
			c2.7,0,5,0.9,7,2.8c2,1.9,2.9,4.1,2.9,6.7c0,2.8-1,5.2-2.9,7C666.9,835.2,664.6,836.1,661.9,836.1z M661.9,908
			c-2.6,0-4.7-0.7-6.5-2.2c-1.8-1.5-2.6-3.4-2.6-5.7v-46c0-2.2,0.8-4,2.5-5.6c1.7-1.6,3.9-2.3,6.6-2.3c2.7,0,4.8,0.8,6.4,2.3
			c1.6,1.6,2.3,3.5,2.3,5.8v45.6c0,2.3-0.8,4.2-2.5,5.8C666.4,907.2,664.3,908,661.9,908z"/>
		<path class="st0" d="M717.1,864.9c0-13.2,2.5-23.5,7.6-30.9c5.1-7.4,12.6-11,22.6-11c10.1,0,17.8,3.7,22.9,11
			c5.1,7.4,7.7,17.6,7.7,30.7c0,13.1-2.6,23.6-7.7,31.5c-5.1,7.9-12.8,11.8-22.9,11.8c-10,0-17.5-3.8-22.6-11.5
			S717.1,878.3,717.1,864.9z M735,864.9c0,8.8,0.9,15.4,2.7,19.7c1.8,4.4,5,6.6,9.6,6.6c4.7,0,8-2.3,9.9-6.9
			c1.9-4.6,2.8-11.2,2.8-19.8c0-8.6-0.9-14.9-2.7-18.7c-1.8-3.8-5.1-5.8-9.8-5.8c-4.6,0-7.8,2-9.7,5.9
			C735.9,849.8,735,856.1,735,864.9z"/>
		<path class="st0" d="M816,908c-6.8-0.1-12.6-1.4-17.6-3.8c-5-2.4-8.6-5.9-10.9-10.3c-0.8-1.6-1.2-3-1.2-4.3c0-2.6,1.1-4.6,3.2-6.1
			c2.2-1.5,4.4-2.2,6.7-2.2c1.5,0,2.8,0.3,4,0.8c1.2,0.5,2.1,1.5,2.6,2.8c2.4,5.3,7,7.9,13.8,7.9c3.5,0,6.4-1.1,8.8-3.3
			c2.4-2.2,3.5-5,3.5-8.4c0-7.8-5.5-11.5-16.4-11.1c-2.4,0.1-4.4-0.5-5.9-1.9c-1.5-1.4-2.2-3.3-2.2-5.6c0-2.3,0.7-4.1,2.1-5.5
			c1.4-1.3,3.2-2,5.4-2c4.9,0,8.3-0.7,10.2-2c2-1.3,2.9-3.7,2.9-7.1c0-2.7-0.9-4.7-2.6-6c-1.8-1.3-3.8-1.9-6.1-1.9
			c-2.2,0-4.3,0.5-6.3,1.4c-2,0.9-3.6,2.3-4.9,4.1c-0.9,1.4-2,2.3-3.2,2.7c-1.2,0.5-2.5,0.7-3.8,0.7c-2.3,0-4.4-0.7-6.2-2.1
			c-1.8-1.4-2.7-3.3-2.7-5.6c0-0.9,0.2-1.9,0.6-2.8c2.2-4.3,5.6-7.6,10.4-9.9c4.8-2.3,10.1-3.4,15.9-3.4c8,0,14.4,2.1,19.2,6.2
			c4.9,4.1,7.3,9.6,7.3,16.3c0,6.3-2.5,11.7-7.5,16c3.5,1.8,6.3,4.4,8.5,8c2.2,3.6,3.2,7.3,3.2,11.2c0,8.2-2.9,14.9-8.6,19.9
			C832.6,905.7,825.2,908.2,816,908z"/>
	</g>
</g>
</svg>
