<svg xmlns="http://www.w3.org/2000/svg" viewBox="0 0 200 34"><title>stmn-logo</title><path d="M101.75 6.35a9.46 9.46 0 0 0-8.39 9.51v16a.16.16 0 0 0 .16.16h3.78a.16.16 0 0 0 .16-.16V15.59a5.2 5.2 0 0 1 5.87-5.15 5.31 5.31 0 0 1 4.51 5.33v16.09a.16.16 0 0 0 .16.14h3.77a.16.16 0 0 0 .16-.16V15.59a9.29 9.29 0 0 0-10.18-9.24zM37.27 8.26h-4.69a.46.46 0 0 1-.46-.46V.16A.16.16 0 0 0 32 0h-3.82a.16.16 0 0 0-.18.16v24.78c0 3.12.62 5.87 1.56 7.09h4.65c-.84-.86-2.11-2.85-2.11-7.09V12.82a.46.46 0 0 1 .46-.46h4.69a.16.16 0 0 0 .16-.16V8.42a.16.16 0 0 0-.14-.16zM11.1 17.15l-1-.42c-2.53-1-4.71-1.9-4.71-3.93A3 3 0 0 1 8.47 10a3.94 3.94 0 0 1 3.3 2.33.15.15 0 0 0 .21.07l3.08-1.61a.17.17 0 0 0 .07-.21 7.32 7.32 0 0 0-6.35-4.27c-4.12 0-7.23 2.87-7.23 6.78 0 4.14 3.15 5.53 6.2 6.81 2.5 1 4.87 2 4.87 4.59a3.81 3.81 0 0 1-4 3.83c-2.65 0-3.89-1.43-5-3.75a.16.16 0 0 0-.21-.08L.1 25.87a.17.17 0 0 0-.09.21A8.71 8.71 0 0 0 8.52 32a8 8 0 0 0 8.22-7.9c0-4.03-2.74-5.73-5.64-6.95zm148.78-4.6a7 7 0 0 0-6.36 7.06v12.25a.16.16 0 0 0 .16.16h1.55a.16.16 0 0 0 .16-.16V19.37a5 5 0 0 1 5.61-4.92 5.08 5.08 0 0 1 4.31 5.1v12.31a.16.16 0 0 0 .16.16H167a.16.16 0 0 0 .16-.16V19.37a6.84 6.84 0 0 0-7.29-6.82zm-15.64 1.83h-1.55a.16.16 0 0 0-.16.16v17.32a.16.16 0 0 0 .16.16h1.55a.16.16 0 0 0 .16-.16V14.55a.16.16 0 0 0-.16-.17zm54 14.21a1.71 1.71 0 1 0 1.76 1.72 1.71 1.71 0 0 0-1.71-1.71zM143.46 6.31A1.71 1.71 0 1 0 145.18 8a1.71 1.71 0 0 0-1.72-1.69zm-70.68 0c-4.8 0-5.49 2-7.34 2s-2.53-2-7.34-2a9.34 9.34 0 0 0-9.18 9.39v16.16a.16.16 0 0 0 .16.16h3.77a.16.16 0 0 0 .16-.16V15.77a5.31 5.31 0 0 1 4.51-5.33 5.2 5.2 0 0 1 5.87 5.15v16.27a.16.16 0 0 0 .16.16h3.77a.16.16 0 0 0 .16-.16V15.77A5.31 5.31 0 0 1 72 10.45a5.2 5.2 0 0 1 5.87 5.15v16.26A.16.16 0 0 0 78 32h3.77a.16.16 0 0 0 .16-.16V15.7a9.34 9.34 0 0 0-9.14-9.39zM182 14.42a5 5 0 0 1 5.32 4.09.14.14 0 0 0 .14.12h1.59a.16.16 0 0 0 .15-.17 6.84 6.84 0 0 0-7.5-5.89 7 7 0 0 0-6.1 7V25a7 7 0 0 0 6.1 7 6.84 6.84 0 0 0 7.5-5.89.16.16 0 0 0-.15-.17h-1.55a.14.14 0 0 0-.14.12 5 5 0 0 1-5.36 4.08 5.09 5.09 0 0 1-4.49-5.14v-5.45a5.09 5.09 0 0 1 4.49-5.13zM122.13 28.6a1.7 1.7 0 0 0-.49 3.34c.49.17.38.54.16.85a3 3 0 0 1-1.25.95c-.09 0-.17.12-.11.22s.21 0 .27 0a3.84 3.84 0 0 0 3.13-3.67 1.71 1.71 0 0 0-1.71-1.69z" fill="#6a767c"/></svg>