<?xml version="1.0" encoding="utf-8"?>
<!-- Generator: Adobe Illustrator 27.0.0, SVG Export Plug-In . SVG Version: 6.00 Build 0)  -->
<svg version="1.1" id="レイヤー_1" xmlns="http://www.w3.org/2000/svg" xmlns:xlink="http://www.w3.org/1999/xlink" x="0px"
	 y="0px" viewBox="0 0 374 40" style="enable-background:new 0 0 374 40;" xml:space="preserve">
<style type="text/css">
	.st0{fill:#FFFFFF;}
</style>
<g>
	<path class="st0" d="M24.8,40c-0.2,0-0.5-0.1-0.7-0.3L0.3,15.9c-0.4-0.4-0.4-1,0-1.4L14.6,0.3C14.7,0.1,15,0,15.2,0h19
		c0.3,0,0.5,0.1,0.7,0.3l14.3,14.3c0.2,0.2,0.3,0.4,0.3,0.7c0,0.3-0.1,0.5-0.3,0.7L35,30.2c-0.2,0.2-0.4,0.3-0.7,0.3
		s-0.5-0.1-0.7-0.3l-4.8-4.8c-0.4-0.4-0.4-1,0-1.4l8.8-8.8l-3.4-3.4l-8.8,8.8c-0.4,0.4-1,0.4-1.4,0l-4.8-4.8
		c-0.2-0.2-0.3-0.4-0.3-0.7c0-0.3,0.1-0.5,0.3-0.7l8.8-8.8l-3.4-3.4L11.8,15.2l18.4,18.4c0.2,0.2,0.3,0.4,0.3,0.7s-0.1,0.5-0.3,0.7
		l-4.8,4.8C25.3,39.9,25,40,24.8,40z M2.3,15.2l22.5,22.5l3.4-3.4L9.8,15.9c-0.4-0.4-0.4-1,0-1.4L22.5,1.9h-6.8L2.3,15.2z
		 M30.9,24.8l3.4,3.4l12.9-12.9L33.9,1.9h-6.8L30.2,5c0.4,0.4,0.4,1,0,1.4l-8.8,8.8l3.4,3.4l8.8-8.8c0.4-0.4,1-0.4,1.4,0l4.8,4.8
		c0.2,0.2,0.3,0.4,0.3,0.7c0,0.3-0.1,0.5-0.3,0.7L30.9,24.8z"/>
	<g>
		<g>
			<path class="st0" d="M60.5,27.1c-0.6,0-1-0.2-1.4-0.6c-0.4-0.4-0.6-0.8-0.6-1.4V10.9c0-0.9,0.3-1.6,0.8-2.1
				C59.7,8.3,60.4,8,61.3,8h7.2c0.6,0,1.1,0.2,1.4,0.5c0.3,0.3,0.5,0.8,0.5,1.4c0,0.5-0.2,1-0.6,1.3c-0.4,0.4-0.8,0.6-1.4,0.6h-5
				c-0.6,0-0.9,0.3-0.9,0.9v2.1c0,0.6,0.3,0.9,0.9,0.9h4.3c0.6,0,1,0.2,1.4,0.5c0.4,0.3,0.5,0.8,0.5,1.3c0,0.5-0.2,1-0.6,1.3
				c-0.4,0.4-0.8,0.5-1.4,0.5h-4.3c-0.6,0-0.9,0.3-0.9,0.9v4.9c0,0.5-0.2,1-0.6,1.4S61,27.1,60.5,27.1z"/>
			<path class="st0" d="M81.3,14.8c0-0.6,0.2-1.1,0.6-1.4c0.4-0.4,0.9-0.6,1.4-0.6c0.6,0,1.1,0.2,1.4,0.6c0.4,0.4,0.6,0.8,0.6,1.4
				v6.5c0,1.3-0.3,2.3-1,3.2c-0.6,0.9-1.5,1.5-2.5,2c-1,0.4-2.1,0.6-3.2,0.6c-1.1,0-2.2-0.2-3.2-0.6c-1-0.4-1.8-1.1-2.5-2
				c-0.7-0.9-1-1.9-1-3.2v-6.5c0-0.6,0.2-1.1,0.6-1.4c0.4-0.4,0.9-0.6,1.4-0.6c0.6,0,1.1,0.2,1.4,0.6c0.4,0.4,0.6,0.8,0.6,1.4v6.3
				c0,0.6,0.2,1.2,0.7,1.6c0.5,0.4,1.1,0.6,1.9,0.6c0.8,0,1.4-0.2,1.9-0.6c0.5-0.4,0.7-1,0.7-1.6V14.8z"/>
			<path class="st0" d="M90.5,27.1c-0.6,0-1.1-0.2-1.5-0.5c-0.4-0.3-0.6-0.8-0.6-1.3V8.2c0-0.5,0.2-0.9,0.6-1.3
				c0.4-0.4,0.9-0.5,1.5-0.5c0.6,0,1.1,0.2,1.4,0.5c0.4,0.4,0.6,0.8,0.6,1.3v7.9c0,0.4,0.1,0.6,0.3,0.6c0.1,0,0.2-0.1,0.4-0.2
				l4.5-3.3c0.4-0.2,0.8-0.4,1.2-0.4c0.5,0,0.9,0.2,1.3,0.6c0.3,0.4,0.5,0.8,0.5,1.3c0,0.7-0.3,1.2-0.9,1.6L96,18.7
				c-0.3,0.2-0.5,0.4-0.5,0.7c0,0.2,0.1,0.4,0.4,0.6l4.2,3.8c0.3,0.2,0.5,0.5,0.6,0.7c0.1,0.3,0.1,0.5,0.1,0.8
				c0,0.5-0.2,0.9-0.6,1.3c-0.4,0.4-0.8,0.6-1.4,0.6c-0.5,0-1-0.2-1.4-0.6L93,22.1C92.9,22,92.8,22,92.7,22c-0.2,0-0.2,0.1-0.2,0.4
				v2.9c0,0.5-0.2,1-0.6,1.3C91.5,26.9,91,27.1,90.5,27.1z"/>
			<path class="st0" d="M111.7,14.8c0-0.6,0.2-1.1,0.6-1.4c0.4-0.4,0.9-0.6,1.4-0.6c0.6,0,1.1,0.2,1.4,0.6c0.4,0.4,0.6,0.8,0.6,1.4
				v6.5c0,1.3-0.3,2.3-1,3.2c-0.6,0.9-1.5,1.5-2.5,2c-1,0.4-2.1,0.6-3.2,0.6c-1.1,0-2.2-0.2-3.2-0.6c-1-0.4-1.8-1.1-2.5-2
				c-0.7-0.9-1-1.9-1-3.2v-6.5c0-0.6,0.2-1.1,0.6-1.4c0.4-0.4,0.9-0.6,1.4-0.6c0.6,0,1.1,0.2,1.4,0.6c0.4,0.4,0.6,0.8,0.6,1.4v6.3
				c0,0.6,0.2,1.2,0.7,1.6c0.5,0.4,1.1,0.6,1.9,0.6c0.8,0,1.4-0.2,1.9-0.6c0.5-0.4,0.7-1,0.7-1.6V14.8z"/>
			<path class="st0" d="M125.3,27.1c-1.3,0-2.5-0.3-3.6-0.9s-2-1.5-2.6-2.5c-0.7-1.1-1-2.3-1-3.7c0-1.4,0.3-2.6,1-3.7
				c0.7-1.1,1.5-1.9,2.6-2.5c1.1-0.6,2.3-0.9,3.6-0.9c1.3,0,2.6,0.3,3.6,0.9c1.1,0.6,2,1.4,2.6,2.5c0.6,1.1,1,2.3,1,3.7
				c0,1.4-0.3,2.6-1,3.7c-0.6,1.1-1.5,1.9-2.6,2.5C127.8,26.8,126.6,27.1,125.3,27.1z M125.3,23.4c0.9,0,1.7-0.3,2.3-1
				c0.6-0.7,0.9-1.5,0.9-2.5c0-1-0.3-1.8-0.9-2.4c-0.6-0.6-1.4-0.9-2.3-0.9c-0.9,0-1.7,0.3-2.3,0.9c-0.6,0.6-0.9,1.4-0.9,2.4
				c0,1,0.3,1.8,0.9,2.5C123.6,23.1,124.4,23.4,125.3,23.4z"/>
			<path class="st0" d="M137,27.1c-0.6,0-1.1-0.2-1.5-0.5c-0.4-0.3-0.6-0.8-0.6-1.3V8.2c0-0.5,0.2-0.9,0.6-1.3
				c0.4-0.4,0.9-0.5,1.5-0.5c0.6,0,1.1,0.2,1.4,0.5c0.4,0.4,0.6,0.8,0.6,1.3v7.9c0,0.4,0.1,0.6,0.3,0.6c0.1,0,0.2-0.1,0.4-0.2
				l4.5-3.3c0.4-0.2,0.8-0.4,1.2-0.4c0.5,0,0.9,0.2,1.3,0.6c0.3,0.4,0.5,0.8,0.5,1.3c0,0.7-0.3,1.2-0.9,1.6l-3.6,2.4
				c-0.3,0.2-0.5,0.4-0.5,0.7c0,0.2,0.1,0.4,0.4,0.6l4.2,3.8c0.3,0.2,0.5,0.5,0.6,0.7c0.1,0.3,0.1,0.5,0.1,0.8
				c0,0.5-0.2,0.9-0.6,1.3c-0.4,0.4-0.8,0.6-1.4,0.6c-0.5,0-1-0.2-1.4-0.6l-4.5-4.4c-0.1-0.1-0.2-0.1-0.3-0.1
				c-0.2,0-0.2,0.1-0.2,0.4v2.9c0,0.5-0.2,1-0.6,1.3C138,26.9,137.5,27.1,137,27.1z"/>
			<path class="st0" d="M155.2,27.1c-2.1,0-3.7-0.6-5-2c-1.3-1.3-1.9-3-1.9-5.2c0-2.2,0.6-3.9,1.9-5.2c1.2-1.3,2.9-1.9,4.9-1.9
				c1.4,0,2.7,0.5,3.8,1.5c0.1-0.4,0.4-0.7,0.7-0.9c0.3-0.2,0.7-0.4,1.2-0.4c0.6,0,1.1,0.2,1.5,0.5c0.4,0.4,0.6,0.8,0.6,1.3v10.4
				c0,0.5-0.2,0.9-0.6,1.3c-0.4,0.3-0.9,0.5-1.5,0.5c-1,0-1.6-0.4-1.9-1.3C157.8,26.7,156.6,27.1,155.2,27.1z M155.5,23.4
				c1,0,1.8-0.3,2.3-1c0.6-0.7,0.9-1.5,0.9-2.5c0-1-0.3-1.8-0.9-2.4c-0.6-0.6-1.4-0.9-2.3-0.9c-0.9,0-1.7,0.3-2.3,0.9
				c-0.6,0.6-0.9,1.4-0.9,2.4c0,1,0.3,1.8,0.9,2.5C153.8,23.1,154.6,23.4,155.5,23.4z"/>
			<path class="st0" d="M175.7,27.1c-0.6,0-1-0.2-1.4-0.6c-0.4-0.4-0.6-0.8-0.6-1.4V11c0-0.9,0.3-1.6,0.8-2.2
				c0.6-0.6,1.3-0.8,2.3-0.8h4.6c1.9,0,3.4,0.6,4.5,1.7c1.1,1.1,1.7,2.5,1.7,4.1c0,1-0.3,1.9-0.8,2.8c-0.5,0.9-1.3,1.5-2.2,2.1
				c0.4,0.2,0.8,0.5,1.2,0.9c0.4,0.4,0.6,0.8,0.8,1.3l1.5,3.5c0.2,0.4,0.2,0.7,0.2,0.9c0,0.6-0.2,1-0.6,1.4
				c-0.4,0.4-0.9,0.5-1.4,0.5c-0.3,0-0.7-0.1-1-0.3c-0.3-0.2-0.6-0.5-0.8-0.9l-1.7-4.2c-0.3-0.7-0.7-1.3-1.2-1.6s-1.1-0.5-1.8-0.5
				h-1.2c-0.6,0-0.9,0.3-0.9,0.9v4.5c0,0.5-0.2,1-0.6,1.4C176.8,26.9,176.3,27.1,175.7,27.1z M178.4,16.3h2.8c0.8,0,1.4-0.2,1.8-0.6
				c0.4-0.4,0.7-1,0.7-1.7c0-0.7-0.2-1.3-0.7-1.7c-0.4-0.4-1-0.6-1.8-0.6h-2.8c-0.5,0-0.7,0.2-0.7,0.7v3.2
				C177.8,16.1,178,16.3,178.4,16.3z"/>
			<path class="st0" d="M199.9,14.8c0-0.6,0.2-1.1,0.6-1.4c0.4-0.4,0.9-0.6,1.4-0.6c0.6,0,1.1,0.2,1.4,0.6c0.4,0.4,0.6,0.8,0.6,1.4
				v6.5c0,1.3-0.3,2.3-1,3.2c-0.6,0.9-1.5,1.5-2.5,2c-1,0.4-2.1,0.6-3.2,0.6c-1.1,0-2.2-0.2-3.2-0.6c-1-0.4-1.8-1.1-2.5-2
				c-0.7-0.9-1-1.9-1-3.2v-6.5c0-0.6,0.2-1.1,0.6-1.4c0.4-0.4,0.9-0.6,1.4-0.6c0.6,0,1.1,0.2,1.4,0.6c0.4,0.4,0.6,0.8,0.6,1.4v6.3
				c0,0.6,0.2,1.2,0.7,1.6c0.5,0.4,1.1,0.6,1.9,0.6c0.8,0,1.4-0.2,1.9-0.6c0.5-0.4,0.7-1,0.7-1.6V14.8z"/>
			<path class="st0" d="M214.4,27.1c-1.4,0-2.5-0.4-3.5-1.3c-0.3,0.9-0.9,1.3-1.9,1.3c-0.6,0-1.1-0.2-1.5-0.5
				c-0.4-0.3-0.6-0.8-0.6-1.3V8.2c0-0.5,0.2-0.9,0.6-1.3c0.4-0.4,0.9-0.5,1.5-0.5c0.6,0,1.1,0.2,1.4,0.5c0.4,0.4,0.6,0.8,0.6,1.3v6
				c1-0.9,2.2-1.4,3.5-1.4c2,0,3.6,0.6,4.8,1.9c1.2,1.3,1.8,3,1.8,5.2c0,2.2-0.6,3.9-1.8,5.2C218.2,26.4,216.5,27.1,214.4,27.1z
				 M214.1,23.4c0.9,0,1.7-0.3,2.3-1c0.6-0.7,0.8-1.5,0.8-2.5c0-1-0.3-1.8-0.8-2.4c-0.6-0.6-1.3-0.9-2.3-0.9c-0.9,0-1.7,0.3-2.2,0.9
				c-0.6,0.6-0.8,1.4-0.8,2.4c0,1,0.3,1.8,0.8,2.5C212.5,23.1,213.2,23.4,214.1,23.4z"/>
			<path class="st0" d="M222.3,14.7c0-0.6,0.2-1.1,0.6-1.4c0.4-0.3,0.9-0.5,1.5-0.5c0.4,0,0.8,0.1,1.1,0.3c0.3,0.2,0.5,0.5,0.7,0.9
				l2.8,6.9c0.2,0.4,0.4,0.6,0.6,0.6c0.3,0,0.5-0.2,0.6-0.6l2.5-6.9c0.2-0.4,0.4-0.7,0.8-1c0.4-0.2,0.7-0.3,1.1-0.3
				c0.5,0,1,0.2,1.4,0.5c0.4,0.3,0.7,0.8,0.7,1.3c0,0.3-0.1,0.6-0.2,0.9l-7.2,16.5c-0.2,0.5-0.5,0.8-0.8,1c-0.3,0.2-0.7,0.3-1,0.3
				c-0.6,0-1-0.2-1.5-0.6c-0.4-0.4-0.7-0.8-0.7-1.4c0-0.3,0.1-0.5,0.2-0.7l2.5-4.4c-0.5-0.2-0.9-0.5-1.2-1.1l-4.5-9.6
				C222.3,15.3,222.3,15,222.3,14.7z"/>
			<path class="st0" d="M240.6,10.8c-0.6,0-1.2-0.2-1.7-0.6c-0.5-0.4-0.7-0.9-0.7-1.6c0-0.6,0.2-1.1,0.7-1.5c0.5-0.4,1-0.6,1.7-0.6
				c0.6,0,1.1,0.2,1.6,0.6c0.4,0.4,0.7,0.9,0.7,1.5c0,0.6-0.2,1.2-0.7,1.6C241.8,10.6,241.3,10.8,240.6,10.8z M240.6,27.1
				c-0.6,0-1.1-0.2-1.5-0.5c-0.4-0.3-0.6-0.8-0.6-1.3V14.9c0-0.5,0.2-0.9,0.6-1.3c0.4-0.4,0.9-0.5,1.5-0.5c0.6,0,1.1,0.2,1.4,0.5
				c0.4,0.4,0.5,0.8,0.5,1.3v10.3c0,0.5-0.2,1-0.6,1.3C241.7,26.9,241.2,27.1,240.6,27.1z"/>
			<path class="st0" d="M251,27.1c-2.1,0-3.8-0.4-5.1-1.3c-0.3-0.2-0.5-0.4-0.6-0.7c-0.1-0.3-0.2-0.5-0.2-0.8c0-0.5,0.2-1,0.5-1.4
				c0.4-0.4,0.8-0.6,1.3-0.6c0.2,0,0.5,0.1,0.7,0.2c0.6,0.2,1.2,0.5,1.9,0.6c0.7,0.2,1.3,0.3,1.9,0.3c1.1,0,1.7-0.3,1.7-0.8
				c0-0.3-0.1-0.6-0.4-0.8c-0.3-0.2-0.9-0.4-1.9-0.5c-0.4,0-0.9-0.1-1.5-0.2c-0.6-0.1-1.2-0.3-1.9-0.5c-0.6-0.3-1.1-0.6-1.5-1.2
				c-0.4-0.5-0.6-1.2-0.6-2.1c0-1.4,0.5-2.5,1.6-3.3c1-0.8,2.4-1.2,4.2-1.2c1,0,2,0.1,2.9,0.3c0.9,0.2,1.6,0.5,2,1
				c0.4,0.4,0.6,0.9,0.6,1.4c0,0.5-0.2,0.9-0.5,1.2c-0.3,0.4-0.8,0.6-1.3,0.6c-0.3,0-0.5-0.1-0.8-0.2c-0.4-0.2-0.8-0.4-1.4-0.6
				c-0.6-0.1-1.1-0.2-1.7-0.2c-1.2,0-1.7,0.2-1.7,0.7c0,0.2,0.1,0.4,0.3,0.6c0.2,0.2,0.8,0.3,1.6,0.4c0.5,0.1,1.1,0.1,1.8,0.3
				c0.7,0.1,1.3,0.3,2,0.6c0.6,0.3,1.2,0.7,1.6,1.3c0.4,0.6,0.6,1.4,0.6,2.4c0,1.4-0.6,2.5-1.7,3.3C254.2,26.7,252.8,27.1,251,27.1z
				"/>
			<path class="st0" d="M265.3,27.1c-1.3,0-2.4-0.4-3.3-1.1c-0.9-0.8-1.3-1.9-1.3-3.5v-5c0-0.3-0.2-0.5-0.5-0.5h-0.7
				c-0.6,0-1-0.2-1.2-0.5c-0.3-0.3-0.4-0.8-0.4-1.3c0-0.6,0.1-1,0.4-1.4c0.3-0.4,0.7-0.5,1.2-0.5h0.7c0.3,0,0.5-0.2,0.5-0.5V9.5
				c0-0.5,0.2-1,0.6-1.3c0.4-0.4,0.8-0.6,1.4-0.6c0.6,0,1.1,0.2,1.4,0.5c0.4,0.4,0.6,0.8,0.6,1.4v3.4c0,0.3,0.2,0.5,0.5,0.5h1.7
				c0.5,0,1,0.2,1.3,0.6c0.4,0.4,0.5,0.8,0.5,1.3c0,0.5-0.2,0.9-0.5,1.3c-0.4,0.3-0.8,0.5-1.4,0.5h-1.7c-0.3,0-0.5,0.2-0.5,0.5v4.3
				c0,0.6,0.1,0.9,0.3,1.1c0.2,0.2,0.5,0.3,0.8,0.3c0.1,0,0.4,0,0.7-0.1c0.4-0.1,0.6-0.1,0.7-0.1c0.5,0,0.9,0.2,1.2,0.6
				c0.3,0.4,0.5,0.8,0.5,1.3c0,0.4-0.1,0.8-0.3,1.1c-0.2,0.3-0.6,0.6-1.1,0.7c-0.4,0.1-0.8,0.2-1.1,0.3
				C266,27.1,265.7,27.1,265.3,27.1z"/>
			<path class="st0" d="M273.4,27.1c-0.6,0-1.1-0.2-1.5-0.6c-0.4-0.4-0.6-0.8-0.6-1.4V9.8c0-0.6,0.2-1.1,0.6-1.4
				c0.4-0.4,0.9-0.6,1.5-0.6c0.6,0,1.1,0.2,1.5,0.6c0.4,0.4,0.6,0.8,0.6,1.4v4c0,0.5,0.1,0.8,0.4,0.8c0.2,0,0.3-0.1,0.5-0.3l5.4-5.7
				c0.5-0.5,1-0.7,1.6-0.7c0.6,0,1.1,0.2,1.5,0.6c0.4,0.4,0.6,0.9,0.6,1.4c0,0.5-0.2,0.9-0.6,1.3l-5.5,5.5l6.1,7
				c0.2,0.2,0.4,0.4,0.4,0.7c0.1,0.2,0.1,0.5,0.1,0.7c0,0.6-0.2,1-0.6,1.4c-0.4,0.4-0.9,0.6-1.5,0.6c-0.6,0-1.1-0.2-1.6-0.7l-5.7-7
				l-0.4,0.4c-0.3,0.3-0.6,0.7-0.6,1c-0.1,0.3-0.1,0.7-0.1,1.1v3.3c0,0.6-0.2,1.1-0.6,1.4C274.5,26.9,274,27.1,273.4,27.1z"/>
			<path class="st0" d="M294,27.1c-2.1,0-3.7-0.6-5-2c-1.3-1.3-1.9-3-1.9-5.2c0-2.2,0.6-3.9,1.9-5.2c1.2-1.3,2.9-1.9,4.9-1.9
				c1.4,0,2.7,0.5,3.8,1.5c0.1-0.4,0.4-0.7,0.7-0.9c0.3-0.2,0.7-0.4,1.2-0.4c0.6,0,1.1,0.2,1.5,0.5c0.4,0.4,0.6,0.8,0.6,1.3v10.4
				c0,0.5-0.2,0.9-0.6,1.3c-0.4,0.3-0.9,0.5-1.5,0.5c-1,0-1.6-0.4-1.9-1.3C296.7,26.7,295.5,27.1,294,27.1z M294.4,23.4
				c1,0,1.8-0.3,2.3-1c0.6-0.7,0.9-1.5,0.9-2.5c0-1-0.3-1.8-0.9-2.4c-0.6-0.6-1.4-0.9-2.3-0.9c-0.9,0-1.7,0.3-2.3,0.9
				c-0.6,0.6-0.9,1.4-0.9,2.4c0,1,0.3,1.8,0.9,2.5C292.6,23.1,293.4,23.4,294.4,23.4z"/>
			<path class="st0" d="M306.8,10.8c-0.6,0-1.2-0.2-1.7-0.6c-0.5-0.4-0.7-0.9-0.7-1.6c0-0.6,0.2-1.1,0.7-1.5c0.5-0.4,1-0.6,1.7-0.6
				c0.6,0,1.1,0.2,1.6,0.6c0.4,0.4,0.7,0.9,0.7,1.5c0,0.6-0.2,1.2-0.7,1.6C308,10.6,307.5,10.8,306.8,10.8z M306.8,27.1
				c-0.6,0-1.1-0.2-1.5-0.5c-0.4-0.3-0.6-0.8-0.6-1.3V14.9c0-0.5,0.2-0.9,0.6-1.3c0.4-0.4,0.9-0.5,1.5-0.5c0.6,0,1.1,0.2,1.4,0.5
				c0.4,0.4,0.5,0.8,0.5,1.3v10.3c0,0.5-0.2,1-0.6,1.3C307.9,26.9,307.4,27.1,306.8,27.1z"/>
			<path class="st0" d="M318,33.3c-0.9,0-1.7-0.1-2.5-0.3c-0.8-0.2-1.5-0.4-2.2-0.8c-0.7-0.4-1.1-1-1.1-1.8c0-0.5,0.2-1,0.6-1.4
				c0.4-0.4,0.8-0.6,1.3-0.6c0.4,0,0.7,0.1,1.1,0.3c0.5,0.3,1,0.5,1.5,0.6c0.5,0.1,1.1,0.2,1.6,0.2c1.2,0,2-0.3,2.6-0.8
				c0.6-0.5,0.8-1.2,0.8-2.1v-1.1c-1,0.9-2.2,1.4-3.6,1.4c-2.1,0-3.7-0.6-4.9-2c-1.2-1.3-1.9-3-1.9-5.2c0-2.2,0.6-3.9,1.8-5.2
				c1.2-1.3,2.8-1.9,4.8-1.9c1.5,0,2.7,0.6,3.8,1.7c0.1-0.4,0.3-0.8,0.7-1.1c0.4-0.3,0.8-0.4,1.3-0.4c0.6,0,1.1,0.2,1.5,0.6
				c0.4,0.4,0.6,0.8,0.6,1.4v11.8c0,2-0.7,3.5-2,4.7C322.3,32.7,320.4,33.3,318,33.3z M318.4,23.4c0.9,0,1.7-0.3,2.2-1
				c0.6-0.7,0.8-1.5,0.8-2.5c0-1-0.3-1.8-0.8-2.4c-0.6-0.6-1.3-0.9-2.2-0.9c-0.9,0-1.7,0.3-2.3,0.9c-0.6,0.6-0.8,1.4-0.8,2.4
				c0,1,0.3,1.8,0.8,2.5C316.7,23.1,317.4,23.4,318.4,23.4z"/>
			<path class="st0" d="M330.9,10.8c-0.6,0-1.2-0.2-1.7-0.6c-0.5-0.4-0.7-0.9-0.7-1.6c0-0.6,0.2-1.1,0.7-1.5c0.5-0.4,1-0.6,1.7-0.6
				c0.6,0,1.1,0.2,1.6,0.6c0.4,0.4,0.7,0.9,0.7,1.5c0,0.6-0.2,1.2-0.7,1.6C332,10.6,331.5,10.8,330.9,10.8z M330.9,27.1
				c-0.6,0-1.1-0.2-1.5-0.5c-0.4-0.3-0.6-0.8-0.6-1.3V14.9c0-0.5,0.2-0.9,0.6-1.3c0.4-0.4,0.9-0.5,1.5-0.5c0.6,0,1.1,0.2,1.4,0.5
				c0.4,0.4,0.5,0.8,0.5,1.3v10.3c0,0.5-0.2,1-0.6,1.3C331.9,26.9,331.4,27.1,330.9,27.1z"/>
			<path class="st0" d="M343.4,17.3c0-3,0.6-5.3,1.7-7c1.1-1.7,2.9-2.5,5.1-2.5c2.3,0,4,0.8,5.2,2.5c1.2,1.7,1.7,4,1.7,7
				c0,3-0.6,5.3-1.7,7.1c-1.2,1.8-2.9,2.7-5.2,2.7c-2.3,0-4-0.9-5.1-2.6C344,22.7,343.4,20.3,343.4,17.3z M347.4,17.3
				c0,2,0.2,3.5,0.6,4.5c0.4,1,1.1,1.5,2.2,1.5c1.1,0,1.8-0.5,2.2-1.6c0.4-1,0.6-2.5,0.6-4.5c0-2-0.2-3.4-0.6-4.2
				c-0.4-0.9-1.2-1.3-2.2-1.3c-1,0-1.8,0.4-2.2,1.3C347.6,13.9,347.4,15.3,347.4,17.3z"/>
			<path class="st0" d="M365.8,27.1c-1.5,0-2.9-0.3-4-0.9c-1.1-0.6-2-1.3-2.5-2.3c-0.2-0.4-0.3-0.7-0.3-1c0-0.6,0.2-1,0.7-1.4
				c0.5-0.3,1-0.5,1.5-0.5c0.3,0,0.6,0.1,0.9,0.2c0.3,0.1,0.5,0.3,0.6,0.6c0.6,1.2,1.6,1.8,3.1,1.8c0.8,0,1.5-0.3,2-0.8
				c0.5-0.5,0.8-1.1,0.8-1.9c0-1.8-1.2-2.6-3.7-2.5c-0.6,0-1-0.1-1.3-0.4c-0.3-0.3-0.5-0.7-0.5-1.3c0-0.5,0.2-0.9,0.5-1.2
				c0.3-0.3,0.7-0.5,1.2-0.5c1.1,0,1.9-0.2,2.3-0.5c0.4-0.3,0.7-0.8,0.7-1.6c0-0.6-0.2-1.1-0.6-1.4c-0.4-0.3-0.9-0.4-1.4-0.4
				c-0.5,0-1,0.1-1.4,0.3c-0.5,0.2-0.8,0.5-1.1,0.9c-0.2,0.3-0.5,0.5-0.7,0.6c-0.3,0.1-0.6,0.2-0.9,0.2c-0.5,0-1-0.2-1.4-0.5
				c-0.4-0.3-0.6-0.7-0.6-1.3c0-0.2,0-0.4,0.1-0.6c0.5-1,1.3-1.7,2.4-2.2c1.1-0.5,2.3-0.8,3.6-0.8c1.8,0,3.3,0.5,4.4,1.4
				c1.1,0.9,1.7,2.2,1.7,3.7c0,1.4-0.6,2.6-1.7,3.6c0.8,0.4,1.4,1,1.9,1.8c0.5,0.8,0.7,1.7,0.7,2.5c0,1.9-0.7,3.4-2,4.5
				C369.6,26.6,367.9,27.1,365.8,27.1z"/>
		</g>
	</g>
</g>
</svg>
