<svg width="342" height="40" viewBox="0 0 342 40" fill="none" xmlns="http://www.w3.org/2000/svg">
<path d="M24.8811 40C24.6351 40 24.3891 39.9082 24.2045 39.7169L0.284518 15.9143C-0.0922353 15.5394 -0.0922353 14.935 0.284518 14.5601L14.6319 0.283091C14.8088 0.107116 15.0548 0 15.3085 0H34.4461C34.6998 0 34.9459 0.0994644 35.1227 0.283091L49.4778 14.5677C49.6546 14.7437 49.7623 14.9885 49.7623 15.241C49.7623 15.4935 49.6623 15.7383 49.4778 15.9143L35.1227 30.1989C34.9459 30.3749 34.6998 30.482 34.4461 30.482C34.1923 30.482 33.9463 30.3826 33.7695 30.1989L28.987 25.4399C28.6102 25.065 28.6102 24.4606 28.987 24.0857L37.8753 15.241L34.4538 11.8363L25.5655 20.681C25.1887 21.0559 24.5813 21.0559 24.2045 20.681L19.4221 15.922C19.2452 15.746 19.1376 15.5011 19.1376 15.2487C19.1376 14.9962 19.2375 14.7513 19.4221 14.5754L28.3104 5.73068L24.8888 2.32594L11.887 15.241L30.3479 33.6113C30.5248 33.7873 30.6324 34.0321 30.6324 34.2846C30.6324 34.5371 30.5325 34.7819 30.3479 34.9579L25.5655 39.7169C25.3809 39.9005 25.1349 40 24.8888 40H24.8811ZM2.32206 15.241L24.8811 37.6894L28.3027 34.2846L9.84945 15.9143C9.47269 15.5394 9.47269 14.935 9.84945 14.5601L22.5591 1.91278H15.7083L2.32206 15.241ZM31.0322 24.7666L34.4538 28.1714L47.4479 15.241L34.0539 1.91278H27.2032L30.3479 5.04208C30.7247 5.41699 30.7247 6.02142 30.3479 6.39633L21.4596 15.241L24.8811 18.6458L33.7695 9.80107C34.1462 9.42617 34.7536 9.42617 35.1304 9.80107L39.9128 14.5601C40.0897 14.736 40.1973 14.9809 40.1973 15.2334C40.1973 15.4858 40.0974 15.7307 39.9128 15.9067L31.0245 24.7513L31.0322 24.7666Z" fill="white"/>
<path d="M60.7804 27.1002C60.2268 27.1002 59.7424 26.909 59.3272 26.5264C58.912 26.1438 58.7044 25.6924 58.7044 25.1722V10.8952C58.7044 10.0077 58.9658 9.3114 59.4886 8.80643C60.0115 8.30145 60.7035 8.04897 61.5646 8.04897H68.7614C69.3765 8.04897 69.8532 8.21729 70.1915 8.55394C70.5298 8.89059 70.699 9.34966 70.699 9.93114C70.699 10.4514 70.5144 10.8952 70.1454 11.2624C69.7763 11.6297 69.315 11.8133 68.7614 11.8133H63.779C63.1639 11.8133 62.8563 12.1194 62.8563 12.7314V14.7972C62.8563 15.4093 63.1639 15.7154 63.779 15.7154H68.1155C68.6999 15.7154 69.1689 15.8837 69.5226 16.2204C69.8763 16.557 70.0531 17.0008 70.0531 17.5516C70.0531 18.0719 69.8609 18.508 69.4764 18.86C69.092 19.2119 68.6384 19.3879 68.1155 19.3879H63.779C63.1639 19.3879 62.8563 19.694 62.8563 20.306V25.1722C62.8563 25.6924 62.6487 26.1438 62.2335 26.5264C61.8183 26.909 61.334 27.1002 60.7804 27.1002Z" fill="white"/>
<path d="M81.694 14.8432C81.694 14.2617 81.8862 13.7873 82.2707 13.42C82.6551 13.0528 83.1395 12.8692 83.7239 12.8692C84.3082 12.8692 84.7926 13.0604 85.1771 13.443C85.5615 13.8256 85.7537 14.2923 85.7537 14.8432V21.316C85.7537 22.5708 85.4308 23.6343 84.7849 24.5065C84.1391 25.3787 83.3087 26.0291 82.2938 26.4575C81.2788 26.886 80.2024 27.1002 79.0644 27.1002C77.9265 27.1002 76.8962 26.886 75.8813 26.4575C74.8663 26.0291 74.0282 25.3787 73.367 24.5065C72.7058 23.6343 72.3751 22.5708 72.3751 21.316V14.8432C72.3751 14.2617 72.5674 13.7873 72.9518 13.42C73.3362 13.0528 73.8206 12.8692 74.405 12.8692C74.9893 12.8692 75.4737 13.0604 75.8582 13.443C76.2426 13.8256 76.4349 14.2923 76.4349 14.8432V21.1324C76.4349 21.7751 76.6809 22.3106 77.173 22.7391C77.6651 23.1676 78.2956 23.3818 79.0644 23.3818C79.8333 23.3818 80.4638 23.1676 80.9559 22.7391C81.448 22.3106 81.694 21.7751 81.694 21.1324V14.8432Z" fill="white"/>
<path d="M90.9283 27.1002C90.344 27.1002 89.8519 26.9319 89.4521 26.5953C89.0522 26.2586 88.8523 25.8301 88.8523 25.3099V8.23259C88.8523 7.74292 89.0446 7.32211 89.429 6.97016C89.8134 6.61821 90.3132 6.44223 90.9283 6.44223C91.5127 6.44223 91.9894 6.61821 92.3585 6.97016C92.7275 7.32211 92.9121 7.75822 92.9121 8.2785V16.1744C92.9121 16.5417 93.0197 16.7253 93.235 16.7253C93.2965 16.7253 93.4195 16.6641 93.6041 16.5417L98.079 13.2364C98.448 12.9916 98.8478 12.8692 99.2784 12.8692C99.8013 12.8692 100.232 13.0528 100.57 13.42C100.908 13.7873 101.078 14.2158 101.078 14.7054C101.078 15.3787 100.77 15.9143 100.155 16.3122L96.5104 18.6993C96.2029 18.9135 96.0491 19.1431 96.0491 19.3879C96.0491 19.6327 96.1721 19.8317 96.4182 19.9847L100.616 23.749C100.893 23.9633 101.078 24.2081 101.17 24.4836C101.262 24.759 101.308 25.0191 101.308 25.264C101.308 25.7536 101.116 26.1821 100.732 26.5494C100.347 26.9166 99.8935 27.1002 99.3707 27.1002C98.8479 27.1002 98.3865 26.9013 97.9867 26.5034L93.4657 22.0964C93.3734 22.0046 93.2657 21.9587 93.1427 21.9587C92.9889 21.9587 92.9121 22.0811 92.9121 22.3259V25.264C92.9121 25.7842 92.7198 26.2204 92.3354 26.5723C91.9509 26.9243 91.4819 27.1002 90.9283 27.1002Z" fill="white"/>
<path d="M112.265 14.8432C112.265 14.2617 112.457 13.7873 112.842 13.42C113.226 13.0528 113.71 12.8692 114.295 12.8692C114.879 12.8692 115.363 13.0604 115.748 13.443C116.132 13.8256 116.325 14.2923 116.325 14.8432V21.316C116.325 22.5708 116.002 23.6343 115.356 24.5065C114.71 25.3787 113.88 26.0291 112.865 26.4575C111.85 26.886 110.773 27.1002 109.635 27.1002C108.497 27.1002 107.467 26.886 106.452 26.4575C105.437 26.0291 104.599 25.3787 103.938 24.5065C103.277 23.6343 102.946 22.5708 102.946 21.316V14.8432C102.946 14.2617 103.138 13.7873 103.523 13.42C103.907 13.0528 104.392 12.8692 104.976 12.8692C105.56 12.8692 106.045 13.0604 106.429 13.443C106.813 13.8256 107.006 14.2923 107.006 14.8432V21.1324C107.006 21.7751 107.252 22.3106 107.744 22.7391C108.236 23.1676 108.866 23.3818 109.635 23.3818C110.404 23.3818 111.035 23.1676 111.527 22.7391C112.019 22.3106 112.265 21.7751 112.265 21.1324V14.8432Z" fill="white"/>
<path d="M125.897 27.1002C124.575 27.1002 123.36 26.7942 122.253 26.1821C121.146 25.57 120.261 24.7207 119.6 23.6343C118.939 22.5478 118.608 21.316 118.608 19.9388C118.608 18.5616 118.939 17.2992 119.6 16.2433C120.261 15.1875 121.146 14.3611 122.253 13.7643C123.36 13.1676 124.575 12.8692 125.897 12.8692C127.22 12.8692 128.473 13.1676 129.565 13.7643C130.657 14.3611 131.525 15.1875 132.171 16.2433C132.817 17.2992 133.14 18.531 133.14 19.9388C133.14 21.3466 132.817 22.5478 132.171 23.6343C131.525 24.7207 130.657 25.57 129.565 26.1821C128.473 26.7942 127.25 27.1002 125.897 27.1002ZM125.897 23.3818C126.851 23.3818 127.627 23.0528 128.227 22.3948C128.827 21.7368 129.127 20.9181 129.127 19.9388C129.127 18.9594 128.827 18.1178 128.227 17.5057C127.627 16.8936 126.851 16.5876 125.897 16.5876C124.944 16.5876 124.198 16.8936 123.568 17.5057C122.937 18.1178 122.622 18.9288 122.622 19.9388C122.622 20.9487 122.937 21.7368 123.568 22.3948C124.198 23.0528 124.975 23.3818 125.897 23.3818Z" fill="white"/>
<path d="M137.646 27.1002C137.061 27.1002 136.569 26.9319 136.17 26.5953C135.77 26.2586 135.57 25.8301 135.57 25.3099V8.23259C135.57 7.74292 135.762 7.32211 136.146 6.97016C136.531 6.61821 137.031 6.44223 137.646 6.44223C138.23 6.44223 138.707 6.61821 139.076 6.97016C139.445 7.32211 139.63 7.75822 139.63 8.2785V16.1744C139.63 16.5417 139.737 16.7253 139.952 16.7253C140.014 16.7253 140.137 16.6641 140.321 16.5417L144.796 13.2364C145.165 12.9916 145.565 12.8692 145.996 12.8692C146.519 12.8692 146.949 13.0528 147.288 13.42C147.626 13.7873 147.795 14.2158 147.795 14.7054C147.795 15.3787 147.488 15.9143 146.872 16.3122L143.228 18.6993C142.92 18.9135 142.767 19.1431 142.767 19.3879C142.767 19.6327 142.89 19.8317 143.136 19.9847L147.334 23.749C147.611 23.9633 147.795 24.2081 147.887 24.4836C147.98 24.759 148.026 25.0191 148.026 25.264C148.026 25.7536 147.834 26.1821 147.449 26.5494C147.065 26.9166 146.611 27.1002 146.088 27.1002C145.565 27.1002 145.104 26.9013 144.704 26.5034L140.183 22.0964C140.091 22.0046 139.983 21.9587 139.86 21.9587C139.706 21.9587 139.63 22.0811 139.63 22.3259V25.264C139.63 25.7842 139.437 26.2204 139.053 26.5723C138.668 26.9243 138.199 27.1002 137.646 27.1002Z" fill="white"/>
<path d="M155.945 27.1002C153.885 27.1002 152.216 26.4499 150.94 25.1492C149.663 23.8485 149.025 22.1117 149.025 19.9388C149.025 17.7659 149.648 16.0444 150.894 14.7743C152.139 13.5042 153.777 12.8692 155.807 12.8692C157.252 12.8692 158.513 13.3741 159.59 14.3841C159.713 14.0168 159.943 13.7108 160.282 13.466C160.62 13.2211 161.02 13.0987 161.481 13.0987C162.096 13.0987 162.596 13.2747 162.981 13.6266C163.365 13.9786 163.557 14.3994 163.557 14.8891V25.3099C163.557 25.8301 163.365 26.2586 162.981 26.5953C162.596 26.9319 162.096 27.1002 161.481 27.1002C160.466 27.1002 159.836 26.6565 159.59 25.7689C158.606 26.6565 157.391 27.1002 155.945 27.1002ZM156.268 23.3818C157.252 23.3818 158.037 23.0528 158.621 22.3948C159.205 21.7368 159.497 20.9181 159.497 19.9388C159.497 18.9594 159.205 18.1178 158.621 17.5057C158.037 16.8936 157.252 16.5876 156.268 16.5876C155.284 16.5876 154.538 16.8936 153.938 17.5057C153.339 18.1178 153.039 18.9288 153.039 19.9388C153.039 20.9487 153.339 21.7368 153.938 22.3948C154.538 23.0528 155.315 23.3818 156.268 23.3818Z" fill="white"/>
<path d="M176.605 27.1002C176.052 27.1002 175.575 26.9089 175.175 26.5264C174.775 26.1438 174.575 25.6924 174.575 25.1721V11.0329C174.575 10.1454 174.86 9.42617 175.429 8.87529C175.998 8.32441 176.759 8.04897 177.712 8.04897H182.326C184.202 8.04897 185.716 8.59985 186.87 9.70161C188.023 10.8034 188.6 12.1806 188.6 13.8332C188.6 14.8125 188.338 15.7307 187.816 16.5876C187.293 17.4445 186.539 18.1331 185.555 18.6534C185.986 18.8676 186.378 19.1584 186.731 19.5256C187.085 19.8929 187.37 20.3366 187.585 20.8569L189.107 24.3458C189.261 24.7131 189.338 25.0191 189.338 25.264C189.338 25.8148 189.123 26.2663 188.692 26.6182C188.261 26.9702 187.785 27.1461 187.262 27.1461C186.924 27.1461 186.593 27.0543 186.27 26.8707C185.947 26.6871 185.693 26.3963 185.509 25.9985L183.756 21.821C183.448 21.0865 183.041 20.5585 182.533 20.2372C182.026 19.9158 181.434 19.7552 180.757 19.7552H179.558C178.943 19.7552 178.635 20.0612 178.635 20.6733V25.1721C178.635 25.6924 178.435 26.1438 178.035 26.5264C177.635 26.9089 177.159 27.1002 176.605 27.1002ZM179.327 16.3122H182.141C182.91 16.3122 183.517 16.0979 183.963 15.6695C184.409 15.241 184.632 14.6901 184.632 14.0168C184.632 13.3435 184.409 12.7544 183.963 12.3412C183.517 11.9281 182.91 11.7215 182.141 11.7215H179.327C178.866 11.7215 178.635 11.951 178.635 12.4101V15.6236C178.635 16.0826 178.866 16.3122 179.327 16.3122Z" fill="white"/>
<path d="M200.871 14.8432C200.871 14.2617 201.063 13.7873 201.448 13.42C201.832 13.0528 202.317 12.8692 202.901 12.8692C203.485 12.8692 203.97 13.0604 204.354 13.443C204.739 13.8256 204.931 14.2923 204.931 14.8432V21.316C204.931 22.5708 204.608 23.6343 203.962 24.5065C203.316 25.3787 202.486 26.0291 201.471 26.4575C200.456 26.886 199.38 27.1002 198.242 27.1002C197.104 27.1002 196.073 26.886 195.058 26.4575C194.043 26.0291 193.205 25.3787 192.544 24.5065C191.883 23.6343 191.552 22.5708 191.552 21.316V14.8432C191.552 14.2617 191.745 13.7873 192.129 13.42C192.513 13.0528 192.998 12.8692 193.582 12.8692C194.167 12.8692 194.651 13.0604 195.035 13.443C195.42 13.8256 195.612 14.2923 195.612 14.8432V21.1324C195.612 21.7751 195.858 22.3106 196.35 22.7391C196.842 23.1676 197.473 23.3818 198.242 23.3818C199.01 23.3818 199.641 23.1676 200.133 22.7391C200.625 22.3106 200.871 21.7751 200.871 21.1324V14.8432Z" fill="white"/>
<path d="M215.511 27.1002C214.127 27.1002 212.958 26.6718 212.005 25.8148C211.728 26.6718 211.097 27.1002 210.113 27.1002C209.529 27.1002 209.037 26.9319 208.637 26.5953C208.237 26.2586 208.037 25.8301 208.037 25.3099V8.23259C208.037 7.74292 208.229 7.32211 208.614 6.97016C208.998 6.61821 209.498 6.44223 210.113 6.44223C210.697 6.44223 211.174 6.61821 211.543 6.97016C211.912 7.32211 212.097 7.75822 212.097 8.2785V14.2923C213.143 13.3435 214.327 12.8692 215.649 12.8692C217.679 12.8692 219.301 13.5042 220.516 14.7743C221.731 16.0444 222.338 17.7659 222.338 19.9388C222.338 22.1117 221.723 23.8485 220.493 25.1492C219.263 26.4499 217.602 27.1002 215.511 27.1002ZM215.188 23.3818C216.141 23.3818 216.902 23.0528 217.471 22.3948C218.04 21.7368 218.325 20.9181 218.325 19.9388C218.325 18.9594 218.04 18.1178 217.471 17.5057C216.902 16.8936 216.141 16.5876 215.188 16.5876C214.234 16.5876 213.519 16.8936 212.95 17.5057C212.381 18.1178 212.097 18.9288 212.097 19.9388C212.097 20.9487 212.381 21.7368 212.95 22.3948C213.519 23.0528 214.265 23.3818 215.188 23.3818Z" fill="white"/>
<path d="M223.353 14.7054C223.353 14.0933 223.569 13.6343 223.999 13.3282C224.43 13.0222 224.922 12.8692 225.475 12.8692C225.906 12.8692 226.283 12.9839 226.606 13.2135C226.929 13.443 227.152 13.7567 227.275 14.1546L230.135 21.0865C230.289 21.4843 230.504 21.6832 230.781 21.6832C231.058 21.6832 231.258 21.4843 231.381 21.0865L233.872 14.1546C234.026 13.7261 234.279 13.4047 234.633 13.1905C234.987 12.9763 235.363 12.8692 235.763 12.8692C236.286 12.8692 236.77 13.0375 237.216 13.3741C237.662 13.7108 237.885 14.1546 237.885 14.7054C237.885 15.0115 237.824 15.3022 237.701 15.5777L230.504 32.1041C230.289 32.5631 230.02 32.8921 229.697 33.091C229.374 33.29 229.043 33.3894 228.705 33.3894C228.151 33.3894 227.651 33.1982 227.205 32.8156C226.76 32.4331 226.537 31.9816 226.537 31.4614C226.537 31.1859 226.598 30.9411 226.721 30.7269L229.212 26.3198C228.689 26.1668 228.274 25.7842 227.967 25.1722L223.492 15.5318C223.4 15.2563 223.353 14.9809 223.353 14.7054Z" fill="white"/>
<path d="M242.122 27.1002C241.537 27.1002 241.045 26.9166 240.646 26.5493C240.246 26.1821 240.046 25.7077 240.046 25.1262V9.79342C240.046 9.21194 240.246 8.73757 240.646 8.37031C241.045 8.00306 241.537 7.81943 242.122 7.81943C242.737 7.81943 243.237 8.00306 243.621 8.37031C244.006 8.73757 244.198 9.21194 244.198 9.79342V13.8332C244.198 14.3535 244.336 14.6136 244.613 14.6136C244.767 14.6136 244.936 14.5065 245.12 14.2923L250.518 8.55394C251.01 8.06427 251.533 7.81943 252.087 7.81943C252.671 7.81943 253.178 8.01836 253.609 8.41622C254.04 8.81408 254.255 9.28845 254.255 9.83933C254.255 10.329 254.055 10.7728 253.655 11.1706L248.165 16.6335L254.301 23.6113C254.516 23.8256 254.655 24.0551 254.716 24.2999C254.778 24.5448 254.808 24.7896 254.808 25.0344C254.808 25.5853 254.593 26.0673 254.163 26.4805C253.732 26.8937 253.24 27.1002 252.686 27.1002C252.102 27.1002 251.564 26.8554 251.072 26.3657L245.351 19.3879L244.982 19.7552C244.644 20.0918 244.429 20.4132 244.336 20.7192C244.244 21.0252 244.198 21.4078 244.198 21.8669V25.1262C244.198 25.7077 244.006 26.1821 243.621 26.5493C243.237 26.9166 242.737 27.1002 242.122 27.1002Z" fill="white"/>
<path d="M262.828 27.1002C260.767 27.1002 259.099 26.4499 257.822 25.1492C256.546 23.8485 255.908 22.1117 255.908 19.9388C255.908 17.7659 256.531 16.0444 257.776 14.7743C259.022 13.5042 260.66 12.8692 262.69 12.8692C264.135 12.8692 265.396 13.3741 266.472 14.3841C266.595 14.0168 266.826 13.7108 267.164 13.466C267.503 13.2211 267.903 13.0987 268.364 13.0987C268.979 13.0987 269.479 13.2747 269.863 13.6266C270.248 13.9786 270.44 14.3994 270.44 14.8891V25.3099C270.44 25.8301 270.248 26.2586 269.863 26.5953C269.479 26.9319 268.979 27.1002 268.364 27.1002C267.349 27.1002 266.718 26.6565 266.472 25.7689C265.488 26.6565 264.273 27.1002 262.828 27.1002ZM263.151 23.3818C264.135 23.3818 264.919 23.0528 265.504 22.3948C266.088 21.7368 266.38 20.9181 266.38 19.9388C266.38 18.9594 266.088 18.1178 265.504 17.5057C264.919 16.8936 264.135 16.5876 263.151 16.5876C262.167 16.5876 261.421 16.8936 260.821 17.5057C260.221 18.1178 259.922 18.9288 259.922 19.9388C259.922 20.9487 260.221 21.7368 260.821 22.3948C261.421 23.0528 262.197 23.3818 263.151 23.3818Z" fill="white"/>
<path d="M275.699 10.8034C275.053 10.8034 274.5 10.5968 274.038 10.1836C273.577 9.77047 273.346 9.24254 273.346 8.59985C273.346 8.01836 273.577 7.51339 274.038 7.08493C274.5 6.65647 275.053 6.44223 275.699 6.44223C276.345 6.44223 276.845 6.65647 277.291 7.08493C277.737 7.51339 277.96 8.01836 277.96 8.59985C277.96 9.24254 277.737 9.77047 277.291 10.1836C276.845 10.5968 276.314 10.8034 275.699 10.8034ZM275.699 27.1002C275.115 27.1002 274.623 26.9319 274.223 26.5953C273.823 26.2586 273.623 25.8301 273.623 25.3099V14.8891C273.623 14.3994 273.815 13.9786 274.2 13.6266C274.584 13.2747 275.084 13.0987 275.699 13.0987C276.314 13.0987 276.799 13.2747 277.152 13.6266C277.506 13.9786 277.683 14.4147 277.683 14.935V25.264C277.683 25.7842 277.491 26.2204 277.106 26.5723C276.722 26.9243 276.253 27.1002 275.699 27.1002Z" fill="white"/>
<path d="M286.886 33.2976C286.025 33.2976 285.195 33.2135 284.395 33.0451C283.595 32.8768 282.873 32.6243 282.227 32.2877C281.489 31.8898 281.12 31.2777 281.12 30.4514C281.12 29.9311 281.304 29.4797 281.673 29.0972C282.042 28.7146 282.473 28.5233 282.965 28.5233C283.365 28.5233 283.719 28.6151 284.026 28.7988C284.518 29.0742 285.033 29.2731 285.572 29.3956C286.11 29.518 286.64 29.5792 287.163 29.5792C288.332 29.5792 289.201 29.3191 289.77 28.7988C290.339 28.2785 290.623 27.5899 290.623 26.733V25.6771C289.639 26.6259 288.424 27.1002 286.979 27.1002C284.918 27.1002 283.265 26.4499 282.019 25.1492C280.774 23.8485 280.151 22.1117 280.151 19.9388C280.151 17.7659 280.758 16.0444 281.973 14.7743C283.188 13.5042 284.81 12.8692 286.84 12.8692C288.316 12.8692 289.593 13.4353 290.669 14.5677C290.762 14.1393 290.984 13.7873 291.338 13.5119C291.692 13.2364 292.13 13.0987 292.653 13.0987C293.268 13.0987 293.76 13.2823 294.129 13.6496C294.498 14.0168 294.683 14.4759 294.683 15.0268V26.8248C294.683 28.7835 293.999 30.3519 292.63 31.5302C291.261 32.7085 289.347 33.2976 286.886 33.2976ZM287.302 23.3818C288.224 23.3818 288.97 23.0528 289.539 22.3948C290.108 21.7368 290.392 20.9181 290.392 19.9388C290.392 18.9594 290.108 18.1178 289.539 17.5057C288.97 16.8936 288.224 16.5876 287.302 16.5876C286.379 16.5876 285.587 16.8936 285.018 17.5057C284.449 18.1178 284.164 18.9288 284.164 19.9388C284.164 20.9487 284.449 21.7368 285.018 22.3948C285.587 23.0528 286.348 23.3818 287.302 23.3818Z" fill="white"/>
<path d="M299.834 10.8034C299.188 10.8034 298.635 10.5968 298.174 10.1836C297.712 9.77047 297.482 9.24254 297.482 8.59985C297.482 8.01836 297.712 7.51339 298.174 7.08493C298.635 6.65647 299.188 6.44223 299.834 6.44223C300.48 6.44223 300.98 6.65647 301.426 7.08493C301.872 7.51339 302.095 8.01836 302.095 8.59985C302.095 9.24254 301.872 9.77047 301.426 10.1836C300.98 10.5968 300.449 10.8034 299.834 10.8034ZM299.834 27.1002C299.25 27.1002 298.758 26.9319 298.358 26.5953C297.958 26.2586 297.758 25.8301 297.758 25.3099V14.8891C297.758 14.3994 297.951 13.9786 298.335 13.6266C298.719 13.2747 299.219 13.0987 299.834 13.0987C300.449 13.0987 300.934 13.2747 301.288 13.6266C301.641 13.9786 301.818 14.4147 301.818 14.935V25.264C301.818 25.7842 301.626 26.2204 301.241 26.5723C300.857 26.9243 300.388 27.1002 299.834 27.1002Z" fill="white"/>
<path d="M312.421 17.3221C312.421 14.3229 312.998 11.9893 314.151 10.3213C315.304 8.6534 317.019 7.81943 319.295 7.81943C321.571 7.81943 323.339 8.6534 324.508 10.3213C325.677 11.9893 326.261 14.3076 326.261 17.2762C326.261 20.2448 325.677 22.6243 324.508 24.4147C323.339 26.205 321.601 27.1002 319.295 27.1002C316.988 27.1002 315.304 26.228 314.151 24.4835C312.998 22.7391 312.421 20.352 312.421 17.3221ZM316.481 17.3221C316.481 19.3114 316.688 20.8034 317.104 21.798C317.519 22.7927 318.249 23.29 319.295 23.29C320.341 23.29 321.125 22.7697 321.555 21.7292C321.986 20.6886 322.201 19.189 322.201 17.2303C322.201 15.2716 321.994 13.8562 321.578 12.9839C321.163 12.1117 320.417 11.6756 319.341 11.6756C318.265 11.6756 317.557 12.1194 317.127 13.0069C316.696 13.8944 316.481 15.3328 316.481 17.3221Z" fill="white"/>
<path d="M334.942 27.1002C333.404 27.0696 332.066 26.7789 330.928 26.228C329.79 25.6771 328.96 24.8967 328.437 23.8868C328.252 23.5195 328.16 23.1982 328.16 22.9227C328.16 22.3412 328.406 21.8822 328.898 21.5455C329.39 21.2089 329.898 21.0406 330.421 21.0406C330.759 21.0406 331.066 21.1018 331.343 21.2242C331.62 21.3466 331.82 21.5608 331.943 21.8669C332.497 23.0604 333.542 23.6572 335.08 23.6572C335.88 23.6572 336.549 23.4047 337.087 22.8998C337.625 22.3948 337.894 21.7598 337.894 20.9946C337.894 19.2196 336.649 18.378 334.157 18.4698C333.604 18.5004 333.158 18.355 332.82 18.0337C332.481 17.7123 332.312 17.2915 332.312 16.7712C332.312 16.251 332.474 15.8378 332.796 15.5318C333.119 15.2257 333.527 15.0727 334.019 15.0727C335.126 15.0727 335.903 14.9197 336.349 14.6136C336.795 14.3076 337.018 13.772 337.018 13.0069C337.018 12.3948 336.818 11.9434 336.418 11.6526C336.018 11.3619 335.557 11.2165 335.034 11.2165C334.542 11.2165 334.065 11.3236 333.604 11.5379C333.142 11.7521 332.773 12.0581 332.497 12.456C332.281 12.7621 332.035 12.9686 331.758 13.0757C331.482 13.1829 331.19 13.2364 330.882 13.2364C330.359 13.2364 329.89 13.0757 329.475 12.7544C329.06 12.4331 328.852 12.0122 328.852 11.492C328.852 11.2777 328.898 11.0635 328.991 10.8493C329.483 9.86993 330.275 9.12012 331.366 8.59985C332.458 8.07957 333.665 7.81943 334.988 7.81943C336.802 7.81943 338.263 8.28615 339.37 9.21959C340.478 10.153 341.031 11.3848 341.031 12.9151C341.031 14.3535 340.462 15.5624 339.324 16.5417C340.124 16.9396 340.77 17.544 341.262 18.355C341.754 19.166 342 20.0153 342 20.9028C342 22.7697 341.346 24.277 340.039 25.4246C338.732 26.5723 337.033 27.1308 334.942 27.1002Z" fill="white"/>
</svg>
