<svg width="142" height="36" viewBox="0 0 142 36" fill="none" xmlns="http://www.w3.org/2000/svg">
<g clip-path="url(#clip0_93_423)">
<path d="M22.3935 36C22.1638 36 21.9444 35.9091 21.7818 35.748L0.253253 14.3243C-0.0844176 13.9882 -0.0844176 13.4428 0.253253 13.1068L13.1705 0.252028C13.3324 0.0908952 13.5525 0 13.7822 0H31.0048C31.2345 0 31.4538 0.0908952 31.6164 0.252028L44.5337 13.1068C44.6956 13.2679 44.787 13.4869 44.787 13.7155C44.787 13.9441 44.6956 14.1624 44.5337 14.3243L31.6164 27.179C31.4545 27.3402 31.2345 27.4311 31.0048 27.4311C30.775 27.4311 30.5557 27.3402 30.3931 27.179L26.0871 22.8939C25.9252 22.7327 25.8338 22.5138 25.8338 22.2852C25.8338 22.0565 25.9252 21.8376 26.0871 21.6764L34.0867 13.7155L31.0041 10.6478L23.0045 18.6087C22.6668 18.9448 22.1188 18.9448 21.7811 18.6087L17.4751 14.3243C17.3132 14.1631 17.2219 13.9441 17.2219 13.7155C17.2219 13.4869 17.3132 13.2686 17.4751 13.1068L25.4747 5.14591L22.3921 2.07819L10.6996 13.7155L27.3105 30.2461C27.6481 30.5821 27.6481 31.1275 27.3105 31.4635L23.0045 35.7487C22.8426 35.9098 22.6225 36.0007 22.3928 36.0007L22.3935 36ZM2.0883 13.7155L22.3935 33.9225L25.4761 30.8548L8.86453 14.3243C8.52686 13.9882 8.52686 13.4428 8.86453 13.1068L20.3052 1.7215H14.1399L2.0883 13.7155ZM27.9221 22.2852L31.0048 25.3529L42.6987 13.7155L30.6463 1.7215H24.4811L27.3105 4.53718C27.6481 4.87322 27.6481 5.41859 27.3105 5.75463L19.3109 13.7155L22.3935 16.7832L30.3931 8.82234C30.7308 8.4863 31.2788 8.4863 31.6164 8.82234L35.9224 13.1075C36.0844 13.2686 36.1757 13.4876 36.1757 13.7162C36.1757 13.9448 36.0844 14.1631 35.9224 14.3249L27.9228 22.2858L27.9221 22.2852Z" fill="white"/>
<path d="M52.7181 14.6522C52.4191 14.6522 52.1576 14.5489 51.9334 14.3423C51.7092 14.1357 51.5971 13.892 51.5971 13.611V5.90146C51.5971 5.42219 51.7383 5.04622 52.0206 4.77353C52.3029 4.50084 52.6765 4.3645 53.1415 4.3645H57.0275C57.3596 4.3645 57.617 4.4554 57.7997 4.63719C57.9824 4.81898 58.0737 5.06687 58.0737 5.38088C58.0737 5.66182 57.9741 5.90146 57.7748 6.09977C57.5755 6.29809 57.3264 6.39725 57.0275 6.39725H54.3372C54.0051 6.39725 53.839 6.56251 53.839 6.89304V8.00857C53.839 8.3391 54.0051 8.50436 54.3372 8.50436H56.6788C56.9943 8.50436 57.2475 8.59526 57.4385 8.77705C57.6295 8.95884 57.725 9.19847 57.725 9.49595C57.725 9.7769 57.6212 10.0124 57.4136 10.2025C57.206 10.3925 56.9611 10.4875 56.6788 10.4875H54.3372C54.0051 10.4875 53.839 10.6528 53.839 10.9833V13.611C53.839 13.892 53.7269 14.1357 53.5027 14.3423C53.2785 14.5489 53.017 14.6522 52.7181 14.6522V14.6522Z" fill="white"/>
<path d="M64.01 8.03324C64.01 7.71924 64.1138 7.46308 64.3213 7.26476C64.5289 7.06644 64.7905 6.96729 65.106 6.96729C65.4215 6.96729 65.6831 7.07058 65.8907 7.27716C66.0983 7.48374 66.202 7.73576 66.202 8.03324V11.5286C66.202 12.2062 66.0277 12.7804 65.6789 13.2514C65.3302 13.7225 64.8818 14.0736 64.3338 14.305C63.7858 14.5364 63.2045 14.6521 62.5901 14.6521C61.9756 14.6521 61.4193 14.5364 60.8713 14.305C60.3233 14.0736 59.8707 13.7225 59.5137 13.2514C59.1566 12.7804 58.9781 12.2062 58.9781 11.5286V8.03324C58.9781 7.71924 59.0819 7.46308 59.2895 7.26476C59.4971 7.06644 59.7586 6.96729 60.0742 6.96729C60.3897 6.96729 60.6513 7.07058 60.8588 7.27716C61.0664 7.48374 61.1702 7.73576 61.1702 8.03324V11.4294C61.1702 11.7765 61.3031 12.0657 61.5688 12.297C61.8345 12.5284 62.1749 12.6441 62.5901 12.6441C63.0053 12.6441 63.3457 12.5284 63.6114 12.297C63.8771 12.0657 64.01 11.7765 64.01 11.4294V8.03324V8.03324Z" fill="white"/>
<path d="M68.9989 14.6521C68.6834 14.6521 68.4177 14.5612 68.2018 14.3795C67.9859 14.1977 67.8779 13.9663 67.8779 13.6854V4.46362C67.8779 4.1992 67.9817 3.97196 68.1893 3.78191C68.3969 3.59185 68.6668 3.49683 68.9989 3.49683C69.3144 3.49683 69.5718 3.59185 69.7711 3.78191C69.9704 3.97196 70.07 4.20746 70.07 4.48841V8.75222C70.07 8.95054 70.1281 9.0497 70.2444 9.0497C70.2776 9.0497 70.344 9.01664 70.4437 8.95054L72.8599 7.16569C73.0592 7.03348 73.2751 6.96737 73.5076 6.96737C73.7899 6.96737 74.0224 7.06653 74.2051 7.26484C74.3878 7.46316 74.4791 7.69453 74.4791 7.95895C74.4791 8.32253 74.313 8.61175 73.9809 8.82659L72.013 10.1156C71.8469 10.2313 71.7639 10.3553 71.7639 10.4875C71.7639 10.6197 71.8303 10.7271 71.9632 10.8098L74.23 12.8425C74.3795 12.9582 74.4791 13.0904 74.5289 13.2391C74.5787 13.3879 74.6037 13.5283 74.6037 13.6606C74.6037 13.925 74.4999 14.1564 74.2923 14.3547C74.0847 14.553 73.8398 14.6521 73.5574 14.6521C73.2751 14.6521 73.026 14.5447 72.8101 14.3299L70.3689 11.9501C70.3191 11.9005 70.261 11.8757 70.1946 11.8757C70.1115 11.8757 70.07 11.9418 70.07 12.074V13.6606C70.07 13.9415 69.9662 14.177 69.7586 14.3671C69.5511 14.5571 69.2978 14.6521 68.9989 14.6521V14.6521Z" fill="white"/>
<path d="M80.517 8.03324C80.517 7.71924 80.6208 7.46308 80.8284 7.26476C81.036 7.06644 81.2976 6.96729 81.6131 6.96729C81.9286 6.96729 82.1902 7.07058 82.3978 7.27716C82.6053 7.48374 82.7091 7.73576 82.7091 8.03324V11.5286C82.7091 12.2062 82.5348 12.7804 82.186 13.2514C81.8373 13.7225 81.3889 14.0736 80.8409 14.305C80.2928 14.5364 79.7116 14.6521 79.0972 14.6521C78.4827 14.6521 77.9264 14.5364 77.3784 14.305C76.8303 14.0736 76.3778 13.7225 76.0208 13.2514C75.6637 12.7804 75.4852 12.2062 75.4852 11.5286V8.03324C75.4852 7.71924 75.589 7.46308 75.7966 7.26476C76.0042 7.06644 76.2657 6.96729 76.5812 6.96729C76.8968 6.96729 77.1583 7.07058 77.3659 7.27716C77.5735 7.48374 77.6773 7.73576 77.6773 8.03324V11.4294C77.6773 11.7765 77.8101 12.0657 78.0758 12.297C78.3416 12.5284 78.682 12.6441 79.0972 12.6441C79.5123 12.6441 79.8528 12.5284 80.1185 12.297C80.3842 12.0657 80.517 11.7765 80.517 11.4294V8.03324V8.03324Z" fill="white"/>
<path d="M87.8773 14.6521C87.1632 14.6521 86.5072 14.4868 85.9094 14.1563C85.3116 13.8257 84.8341 13.3671 84.4771 12.7804C84.12 12.1938 83.9415 11.5286 83.9415 10.7849C83.9415 10.0412 84.12 9.35948 84.4771 8.78932C84.8341 8.21916 85.3116 7.77295 85.9094 7.45068C86.5072 7.12842 87.1632 6.96729 87.8773 6.96729C88.5914 6.96729 89.2681 7.12842 89.8576 7.45068C90.4472 7.77295 90.9163 8.21916 91.2651 8.78932C91.6138 9.35948 91.7882 10.0247 91.7882 10.7849C91.7882 11.5451 91.6138 12.1938 91.2651 12.7804C90.9163 13.3671 90.4472 13.8257 89.8576 14.1563C89.2681 14.4868 88.608 14.6521 87.8773 14.6521ZM87.8773 12.6441C88.3921 12.6441 88.8114 12.4664 89.1353 12.1111C89.4591 11.7558 89.621 11.3137 89.621 10.7849C89.621 10.256 89.4591 9.80156 89.1353 9.47103C88.8114 9.14051 88.3921 8.97524 87.8773 8.97524C87.3625 8.97524 86.9598 9.14051 86.6193 9.47103C86.2789 9.80156 86.1087 10.2395 86.1087 10.7849C86.1087 11.3303 86.2789 11.7558 86.6193 12.1111C86.9598 12.4664 87.3791 12.6441 87.8773 12.6441Z" fill="white"/>
<path d="M94.2224 14.6521C93.9069 14.6521 93.6412 14.5612 93.4253 14.3795C93.2094 14.1977 93.1015 13.9663 93.1015 13.6854V4.46362C93.1015 4.1992 93.2053 3.97196 93.4128 3.78191C93.6204 3.59185 93.8903 3.49683 94.2224 3.49683C94.5379 3.49683 94.7954 3.59185 94.9946 3.78191C95.1939 3.97196 95.2936 4.20746 95.2936 4.48841V8.75222C95.2936 8.95054 95.3517 9.0497 95.4679 9.0497C95.5011 9.0497 95.5676 9.01664 95.6672 8.95054L98.0835 7.16569C98.2828 7.03348 98.4987 6.96737 98.7312 6.96737C99.0135 6.96737 99.246 7.06653 99.4286 7.26484C99.6113 7.46316 99.7026 7.69453 99.7026 7.95895C99.7026 8.32253 99.5366 8.61175 99.2044 8.82659L97.2365 10.1156C97.0705 10.2313 96.9874 10.3553 96.9874 10.4875C96.9874 10.6197 97.0539 10.7271 97.1867 10.8098L99.4535 12.8425C99.603 12.9582 99.7026 13.0904 99.7525 13.2391C99.8023 13.3879 99.8272 13.5283 99.8272 13.6606C99.8272 13.925 99.7234 14.1564 99.5158 14.3547C99.3082 14.553 99.0633 14.6521 98.781 14.6521C98.4987 14.6521 98.2496 14.5447 98.0337 14.3299L95.5925 11.9501C95.5427 11.9005 95.4845 11.8757 95.4181 11.8757C95.3351 11.8757 95.2936 11.9418 95.2936 12.074V13.6606C95.2936 13.9415 95.1898 14.177 94.9822 14.3671C94.7746 14.5571 94.5213 14.6521 94.2224 14.6521V14.6521Z" fill="white"/>
<path d="M104.106 14.6521C102.994 14.6521 102.093 14.3009 101.403 13.5985C100.714 12.8961 100.37 11.9583 100.37 10.7849C100.37 9.61151 100.706 8.6819 101.379 7.99605C102.051 7.31021 102.935 6.96729 104.031 6.96729C104.812 6.96729 105.493 7.23997 106.074 7.78534C106.141 7.58702 106.265 7.42176 106.448 7.28955C106.63 7.15734 106.846 7.09123 107.095 7.09123C107.428 7.09123 107.697 7.18626 107.905 7.37631C108.113 7.56637 108.216 7.7936 108.216 8.05803V13.6853C108.216 13.9662 108.113 14.1976 107.905 14.3794C107.697 14.5612 107.428 14.6521 107.095 14.6521C106.547 14.6521 106.207 14.4124 106.074 13.9332C105.543 14.4124 104.887 14.6521 104.106 14.6521V14.6521ZM104.281 12.6441C104.812 12.6441 105.235 12.4664 105.551 12.1111C105.867 11.7558 106.024 11.3137 106.024 10.7849C106.024 10.256 105.867 9.80156 105.551 9.47103C105.235 9.14051 104.812 8.97524 104.281 8.97524C103.749 8.97524 103.346 9.14051 103.023 9.47103C102.699 9.80156 102.537 10.2395 102.537 10.7849C102.537 11.3303 102.699 11.7558 103.023 12.1111C103.346 12.4664 103.766 12.6441 104.281 12.6441Z" fill="white"/>
<path d="M52.6932 28.4242C52.3942 28.4242 52.1368 28.3209 51.9209 28.1143C51.7051 27.9077 51.5971 27.6639 51.5971 27.383V19.7478C51.5971 19.2685 51.7507 18.8802 52.0579 18.5827C52.3652 18.2852 52.7762 18.1365 53.291 18.1365H55.782C56.795 18.1365 57.6129 18.4339 58.2356 19.0289C58.8584 19.6238 59.1698 20.3675 59.1698 21.26C59.1698 21.7888 59.0286 22.2846 58.7463 22.7473C58.464 23.2101 58.0571 23.5819 57.5257 23.8629C57.7582 23.9786 57.9699 24.1356 58.1609 24.3339C58.3519 24.5322 58.5055 24.7718 58.6218 25.0528L59.4438 26.9368C59.5268 27.1351 59.5683 27.3004 59.5683 27.4326C59.5683 27.73 59.4521 27.9738 59.2196 28.1639C58.9871 28.3539 58.7297 28.4489 58.4474 28.4489C58.2647 28.4489 58.0862 28.3994 57.9118 28.3002C57.7374 28.2011 57.6004 28.0441 57.5008 27.8292L56.5542 25.5734C56.3881 25.1767 56.1681 24.8916 55.8941 24.7181C55.6201 24.5446 55.3004 24.4578 54.9351 24.4578H54.2874C53.9553 24.4578 53.7892 24.6231 53.7892 24.9536V27.383C53.7892 27.6639 53.6813 27.9077 53.4654 28.1143C53.2495 28.3209 52.9921 28.4242 52.6932 28.4242V28.4242ZM54.1628 22.5986H55.6824C56.0975 22.5986 56.4255 22.4829 56.6663 22.2515C56.9071 22.0202 57.0275 21.7227 57.0275 21.3591C57.0275 20.9955 56.9071 20.6774 56.6663 20.4543C56.4255 20.2312 56.0975 20.1196 55.6824 20.1196H54.1628C53.9137 20.1196 53.7892 20.2436 53.7892 20.4915V22.2268C53.7892 22.4747 53.9137 22.5986 54.1628 22.5986V22.5986Z" fill="white"/>
<path d="M65.7959 21.8052C65.7959 21.4912 65.8997 21.2351 66.1073 21.0367C66.3148 20.8384 66.5764 20.7393 66.8919 20.7393C67.2074 20.7393 67.469 20.8425 67.6766 21.0491C67.8842 21.2557 67.988 21.5077 67.988 21.8052V25.3005C67.988 25.9781 67.8136 26.5524 67.4649 27.0234C67.1161 27.4944 66.6677 27.8456 66.1197 28.077C65.5717 28.3083 64.9905 28.424 64.376 28.424C63.7616 28.424 63.2052 28.3083 62.6572 28.077C62.1092 27.8456 61.6567 27.4944 61.2996 27.0234C60.9426 26.5524 60.764 25.9781 60.764 25.3005V21.8052C60.764 21.4912 60.8678 21.2351 61.0754 21.0367C61.283 20.8384 61.5446 20.7393 61.8601 20.7393C62.1756 20.7393 62.4372 20.8425 62.6448 21.0491C62.8523 21.2557 62.9561 21.5077 62.9561 21.8052V25.2014C62.9561 25.5484 63.089 25.8377 63.3547 26.069C63.6204 26.3004 63.9608 26.4161 64.376 26.4161C64.7912 26.4161 65.1316 26.3004 65.3973 26.069C65.663 25.8377 65.7959 25.5484 65.7959 25.2014V21.8052Z" fill="white"/>
<path d="M73.6993 28.4241C72.952 28.4241 72.3209 28.1927 71.8061 27.73C71.6567 28.1927 71.3162 28.4241 70.7848 28.4241C70.4693 28.4241 70.2036 28.3332 69.9877 28.1514C69.7718 27.9696 69.6638 27.7383 69.6638 27.4573V18.2356C69.6638 17.9712 69.7676 17.7439 69.9752 17.5539C70.1828 17.3638 70.4527 17.2688 70.7848 17.2688C71.1003 17.2688 71.3577 17.3638 71.557 17.5539C71.7563 17.7439 71.8559 17.9794 71.8559 18.2604V21.5078C72.4206 20.9955 73.0599 20.7393 73.774 20.7393C74.8701 20.7393 75.7461 21.0823 76.402 21.7681C77.058 22.454 77.386 23.3836 77.386 24.5569C77.386 25.7303 77.0538 26.6682 76.3896 27.3706C75.7253 28.0729 74.8285 28.4241 73.6993 28.4241V28.4241ZM73.5249 26.4162C74.0397 26.4162 74.4507 26.2385 74.758 25.8832C75.0652 25.5279 75.2188 25.0858 75.2188 24.5569C75.2188 24.0281 75.0652 23.5736 74.758 23.2431C74.4507 22.9126 74.0397 22.7473 73.5249 22.7473C73.0101 22.7473 72.624 22.9126 72.3168 23.2431C72.0095 23.5736 71.8559 24.0116 71.8559 24.5569C71.8559 25.1023 72.0095 25.5279 72.3168 25.8832C72.624 26.2385 73.0267 26.4162 73.5249 26.4162Z" fill="white"/>
<path d="M77.934 21.7308C77.934 21.4003 78.0502 21.1524 78.2827 20.9872C78.5152 20.8219 78.7809 20.7393 79.0799 20.7393C79.3123 20.7393 79.5158 20.8012 79.6902 20.9252C79.8645 21.0491 79.9849 21.2185 80.0513 21.4334L81.5958 25.1766C81.6788 25.3914 81.7951 25.4989 81.9445 25.4989C82.094 25.4989 82.2019 25.3914 82.2683 25.1766L83.6135 21.4334C83.6965 21.202 83.8335 21.0285 84.0245 20.9128C84.2155 20.7971 84.4189 20.7393 84.6348 20.7393C84.9171 20.7393 85.1787 20.8302 85.4195 21.0119C85.6603 21.1937 85.7807 21.4334 85.7807 21.7308C85.7807 21.8961 85.7475 22.0531 85.681 22.2018L81.7951 31.1261C81.6788 31.374 81.5335 31.5517 81.3591 31.6591C81.1848 31.7665 81.0062 31.8202 80.8236 31.8202C80.5246 31.8202 80.2548 31.7169 80.014 31.5103C79.7732 31.3038 79.6528 31.06 79.6528 30.779C79.6528 30.6303 79.686 30.4981 79.7524 30.3824L81.0976 28.0026C80.8153 27.92 80.5911 27.7134 80.425 27.3829L78.0087 22.1771C77.9589 22.0283 77.934 21.8796 77.934 21.7308V21.7308Z" fill="white"/>
<path d="M88.0696 28.4241C87.7541 28.4241 87.4884 28.3249 87.2725 28.1266C87.0566 27.9283 86.9487 27.6721 86.9487 27.3581V19.0784C86.9487 18.7644 87.0566 18.5082 87.2725 18.3099C87.4884 18.1116 87.7541 18.0125 88.0696 18.0125C88.4018 18.0125 88.6716 18.1116 88.8792 18.3099C89.0868 18.5082 89.1906 18.7644 89.1906 19.0784V21.2599C89.1906 21.5408 89.2653 21.6813 89.4148 21.6813C89.4978 21.6813 89.5891 21.6235 89.6888 21.5078L92.6033 18.4091C92.869 18.1447 93.1513 18.0125 93.4502 18.0125C93.7657 18.0125 94.0397 18.1199 94.2722 18.3347C94.5047 18.5496 94.621 18.8057 94.621 19.1032C94.621 19.3676 94.513 19.6072 94.2972 19.8221L91.3328 22.7721L94.6459 26.5401C94.7621 26.6558 94.8369 26.7797 94.8701 26.9119C94.9033 27.0441 94.9199 27.1763 94.9199 27.3085C94.9199 27.606 94.8037 27.8663 94.5712 28.0894C94.3387 28.3125 94.073 28.4241 93.774 28.4241C93.4585 28.4241 93.1679 28.2919 92.9022 28.0274L89.8133 24.2594L89.6141 24.4577C89.4314 24.6395 89.3151 24.8131 89.2653 24.9783C89.2155 25.1436 89.1906 25.3502 89.1906 25.5981V27.3581C89.1906 27.6721 89.0868 27.9283 88.8792 28.1266C88.6716 28.3249 88.4018 28.4241 88.0696 28.4241V28.4241Z" fill="white"/>
<path d="M99.2515 28.424C98.1388 28.424 97.2379 28.0728 96.5487 27.3705C95.8596 26.6681 95.515 25.7302 95.515 24.5569C95.515 23.3835 95.8513 22.4539 96.5238 21.768C97.1964 21.0822 98.0807 20.7393 99.1768 20.7393C99.9573 20.7393 100.638 21.0119 101.219 21.5573C101.286 21.359 101.41 21.1937 101.593 21.0615C101.776 20.9293 101.992 20.8632 102.241 20.8632C102.573 20.8632 102.843 20.9582 103.05 21.1483C103.258 21.3383 103.362 21.5656 103.362 21.83V27.4572C103.362 27.7382 103.258 27.9696 103.05 28.1513C102.843 28.3331 102.573 28.424 102.241 28.424C101.693 28.424 101.352 28.1844 101.219 27.7051C100.688 28.1844 100.032 28.424 99.2515 28.424V28.424ZM99.4259 26.4161C99.9573 26.4161 100.381 26.2384 100.696 25.8831C101.012 25.5278 101.17 25.0857 101.17 24.5569C101.17 24.028 101.012 23.5735 100.696 23.243C100.381 22.9125 99.9573 22.7472 99.4259 22.7472C98.8945 22.7472 98.4917 22.9125 98.1679 23.243C97.8441 23.5735 97.6822 24.0115 97.6822 24.5569C97.6822 25.1022 97.8441 25.5278 98.1679 25.8831C98.4917 26.2384 98.9111 26.4161 99.4259 26.4161Z" fill="white"/>
<path d="M106.201 19.6238C105.853 19.6238 105.554 19.5123 105.305 19.2892C105.056 19.066 104.931 18.781 104.931 18.4339C104.931 18.1199 105.056 17.8472 105.305 17.6159C105.554 17.3845 105.853 17.2688 106.201 17.2688C106.55 17.2688 106.82 17.3845 107.061 17.6159C107.302 17.8472 107.422 18.1199 107.422 18.4339C107.422 18.781 107.302 19.066 107.061 19.2892C106.82 19.5123 106.534 19.6238 106.201 19.6238ZM106.201 28.4241C105.886 28.4241 105.62 28.3332 105.404 28.1514C105.188 27.9696 105.08 27.7383 105.08 27.4573V21.8301C105.08 21.5657 105.184 21.3384 105.392 21.1484C105.599 20.9583 105.869 20.8633 106.201 20.8633C106.534 20.8633 106.795 20.9583 106.986 21.1484C107.177 21.3384 107.273 21.5739 107.273 21.8549V27.4325C107.273 27.7135 107.169 27.949 106.961 28.139C106.754 28.3291 106.5 28.4241 106.201 28.4241V28.4241Z" fill="white"/>
<path d="M112.239 31.7706C111.774 31.7706 111.326 31.7252 110.894 31.6343C110.462 31.5434 110.072 31.407 109.723 31.2253C109.325 31.0104 109.126 30.6799 109.126 30.2337C109.126 29.9527 109.225 29.709 109.425 29.5024C109.624 29.2958 109.856 29.1925 110.122 29.1925C110.338 29.1925 110.529 29.2421 110.695 29.3412C110.961 29.49 111.239 29.5974 111.529 29.6635C111.82 29.7296 112.106 29.7627 112.389 29.7627C113.02 29.7627 113.489 29.6222 113.796 29.3412C114.103 29.0603 114.257 28.6885 114.257 28.2257V27.6556C113.726 28.1679 113.07 28.424 112.289 28.424C111.177 28.424 110.284 28.0728 109.611 27.3705C108.939 26.6681 108.602 25.7302 108.602 24.5569C108.602 23.3835 108.93 22.4539 109.586 21.768C110.242 21.0822 111.118 20.7393 112.214 20.7393C113.012 20.7393 113.701 21.045 114.282 21.6565C114.332 21.4251 114.452 21.2351 114.643 21.0863C114.834 20.9376 115.071 20.8632 115.353 20.8632C115.685 20.8632 115.951 20.9624 116.15 21.1607C116.35 21.359 116.449 21.6069 116.449 21.9044V28.2753C116.449 29.333 116.08 30.18 115.341 30.8162C114.602 31.4525 113.568 31.7706 112.239 31.7706V31.7706ZM112.464 26.4161C112.962 26.4161 113.364 26.2384 113.672 25.8831C113.979 25.5278 114.133 25.0857 114.133 24.5569C114.133 24.028 113.979 23.5735 113.672 23.243C113.364 22.9125 112.962 22.7472 112.464 22.7472C111.965 22.7472 111.538 22.9125 111.23 23.243C110.923 23.5735 110.77 24.0115 110.77 24.5569C110.77 25.1022 110.923 25.5278 111.23 25.8831C111.538 26.2384 111.949 26.4161 112.464 26.4161Z" fill="white"/>
<path d="M119.234 19.6238C118.886 19.6238 118.587 19.5123 118.337 19.2892C118.088 19.066 117.964 18.781 117.964 18.4339C117.964 18.1199 118.088 17.8472 118.337 17.6159C118.587 17.3845 118.886 17.2688 119.234 17.2688C119.583 17.2688 119.853 17.3845 120.094 17.6159C120.334 17.8472 120.455 18.1199 120.455 18.4339C120.455 18.781 120.334 19.066 120.094 19.2892C119.853 19.5123 119.566 19.6238 119.234 19.6238ZM119.234 28.4241C118.919 28.4241 118.653 28.3332 118.437 28.1514C118.221 27.9696 118.113 27.7383 118.113 27.4573V21.8301C118.113 21.5657 118.217 21.3384 118.425 21.1484C118.632 20.9583 118.902 20.8633 119.234 20.8633C119.566 20.8633 119.828 20.9583 120.019 21.1484C120.21 21.3384 120.305 21.5739 120.305 21.8549V27.4325C120.305 27.7135 120.202 27.949 119.994 28.139C119.786 28.3291 119.533 28.4241 119.234 28.4241V28.4241Z" fill="white"/>
<path d="M126.028 23.1439C126.028 21.5243 126.339 20.2642 126.962 19.3635C127.585 18.4628 128.51 18.0125 129.739 18.0125C130.968 18.0125 131.923 18.4628 132.554 19.3635C133.185 20.2642 133.501 21.516 133.501 23.1191C133.501 24.7222 133.185 26.0071 132.554 26.9739C131.923 27.9407 130.985 28.4241 129.739 28.4241C128.494 28.4241 127.585 27.9531 126.962 27.0111C126.339 26.0691 126.028 24.78 126.028 23.1439V23.1439ZM128.22 23.1439C128.22 24.2181 128.332 25.0238 128.556 25.5609C128.78 26.098 129.175 26.3665 129.739 26.3665C130.304 26.3665 130.727 26.0856 130.96 25.5237C131.192 24.9618 131.309 24.152 131.309 23.0943C131.309 22.0366 131.197 21.2723 130.972 20.8013C130.748 20.3303 130.346 20.0948 129.764 20.0948C129.183 20.0948 128.801 20.3344 128.569 20.8137C128.336 21.2929 128.22 22.0697 128.22 23.1439Z" fill="white"/>
<path d="M138.189 28.4241C137.358 28.4076 136.636 28.2506 136.022 27.9531C135.407 27.6556 134.959 27.2342 134.676 26.6888C134.577 26.4905 134.527 26.317 134.527 26.1682C134.527 25.8542 134.66 25.6063 134.926 25.4245C135.191 25.2428 135.465 25.1519 135.748 25.1519C135.93 25.1519 136.096 25.1849 136.246 25.251C136.395 25.3171 136.503 25.4328 136.57 25.5981C136.869 26.2426 137.433 26.5649 138.263 26.5649C138.695 26.5649 139.056 26.4285 139.347 26.1558C139.638 25.8831 139.783 25.5402 139.783 25.1271C139.783 24.1685 139.11 23.7141 137.765 23.7636C137.466 23.7802 137.226 23.7017 137.043 23.5281C136.86 23.3546 136.769 23.1274 136.769 22.8464C136.769 22.5655 136.856 22.3424 137.03 22.1771C137.205 22.0118 137.425 21.9292 137.691 21.9292C138.288 21.9292 138.708 21.8466 138.949 21.6813C139.189 21.516 139.31 21.2268 139.31 20.8137C139.31 20.4831 139.202 20.2394 138.986 20.0824C138.77 19.9254 138.521 19.8469 138.239 19.8469C137.973 19.8469 137.715 19.9047 137.466 20.0204C137.217 20.1361 137.018 20.3014 136.869 20.5162C136.752 20.6815 136.619 20.793 136.47 20.8509C136.321 20.9087 136.163 20.9376 135.997 20.9376C135.714 20.9376 135.461 20.8509 135.237 20.6773C135.013 20.5038 134.901 20.2766 134.901 19.9956C134.901 19.8799 134.926 19.7642 134.975 19.6486C135.241 19.1197 135.669 18.7148 136.258 18.4339C136.848 18.1529 137.5 18.0125 138.214 18.0125C139.193 18.0125 139.982 18.2645 140.58 18.7685C141.178 19.2726 141.477 19.9378 141.477 20.7641C141.477 21.5408 141.17 22.1936 140.555 22.7225C140.987 22.9373 141.336 23.2637 141.601 23.7017C141.867 24.1396 142 24.5982 142 25.0775C142 26.0856 141.647 26.8995 140.941 27.5193C140.236 28.139 139.318 28.4406 138.189 28.4241Z" fill="white"/>
</g>
<defs>
<clipPath id="clip0_93_423">
<rect width="142" height="36" fill="white"/>
</clipPath>
</defs>
</svg>
