<?xml version="1.0" encoding="utf-8"?>
<!-- Generator: Adobe Illustrator 27.0.0, SVG Export Plug-In . SVG Version: 6.00 Build 0)  -->
<svg version="1.1" id="レイヤー_1" xmlns="http://www.w3.org/2000/svg" xmlns:xlink="http://www.w3.org/1999/xlink" x="0px"
	 y="0px" viewBox="0 0 160 36" style="enable-background:new 0 0 160 36;" xml:space="preserve">
<style type="text/css">
	.st0{fill:#FFFFFF;}
</style>
<g>
	<path class="st0" d="M22.3,36c-0.2,0-0.4-0.1-0.6-0.3L0.3,14.3c-0.3-0.3-0.3-0.9,0-1.2L13.1,0.3C13.3,0.1,13.5,0,13.7,0h17.1
		c0.2,0,0.4,0.1,0.6,0.3l12.9,12.9c0.2,0.2,0.3,0.4,0.3,0.6c0,0.2-0.1,0.4-0.3,0.6L31.5,27.2c-0.2,0.2-0.4,0.3-0.6,0.3
		c-0.2,0-0.4-0.1-0.6-0.3L26,22.9c-0.2-0.2-0.3-0.4-0.3-0.6c0-0.2,0.1-0.4,0.3-0.6l8-8l-3.1-3.1l-8,8c-0.3,0.3-0.9,0.3-1.2,0
		l-4.3-4.3c-0.2-0.2-0.3-0.4-0.3-0.6c0-0.2,0.1-0.4,0.3-0.6l8-8l-3.1-3.1L10.6,13.7l16.5,16.5c0.3,0.3,0.3,0.9,0,1.2l-4.3,4.3
		C22.7,35.9,22.5,36,22.3,36z M2.1,13.7l20.2,20.2l3.1-3.1L8.8,14.3c-0.3-0.3-0.3-0.9,0-1.2L20.2,1.7h-6.1L2.1,13.7z M27.8,22.3
		l3.1,3.1l11.6-11.6l-12-12h-6.1l2.8,2.8c0.3,0.3,0.3,0.9,0,1.2l-8,8l3.1,3.1l8-8c0.3-0.3,0.9-0.3,1.2,0l4.3,4.3
		c0.2,0.2,0.3,0.4,0.3,0.6c0,0.2-0.1,0.4-0.3,0.6L27.8,22.3z"/>
	<g>
		<g>
			<path class="st0" d="M52.5,14.1c-0.3,0-0.6-0.1-0.8-0.3c-0.2-0.2-0.3-0.5-0.3-0.7V5.4c0-0.5,0.1-0.9,0.4-1.1
				C52,4,52.4,3.8,52.9,3.8h3.9c0.3,0,0.6,0.1,0.8,0.3c0.2,0.2,0.3,0.4,0.3,0.7c0,0.3-0.1,0.5-0.3,0.7c-0.2,0.2-0.4,0.3-0.7,0.3
				h-2.7c-0.3,0-0.5,0.2-0.5,0.5v1.1c0,0.3,0.2,0.5,0.5,0.5h2.3C56.7,8,57,8,57.2,8.2c0.2,0.2,0.3,0.4,0.3,0.7
				c0,0.3-0.1,0.5-0.3,0.7c-0.2,0.2-0.5,0.3-0.7,0.3h-2.3c-0.3,0-0.5,0.2-0.5,0.5v2.6c0,0.3-0.1,0.5-0.3,0.7
				C53,14,52.8,14.1,52.5,14.1z"/>
			<path class="st0" d="M63.7,7.5c0-0.3,0.1-0.6,0.3-0.8c0.2-0.2,0.5-0.3,0.8-0.3c0.3,0,0.6,0.1,0.8,0.3c0.2,0.2,0.3,0.5,0.3,0.8V11
				c0,0.7-0.2,1.3-0.5,1.7s-0.8,0.8-1.3,1.1c-0.5,0.2-1.1,0.3-1.7,0.3c-0.6,0-1.2-0.1-1.7-0.3c-0.5-0.2-1-0.6-1.4-1.1
				c-0.4-0.5-0.5-1-0.5-1.7V7.5c0-0.3,0.1-0.6,0.3-0.8c0.2-0.2,0.5-0.3,0.8-0.3c0.3,0,0.6,0.1,0.8,0.3c0.2,0.2,0.3,0.5,0.3,0.8v3.4
				c0,0.3,0.1,0.6,0.4,0.9c0.3,0.2,0.6,0.3,1,0.3c0.4,0,0.8-0.1,1-0.3c0.3-0.2,0.4-0.5,0.4-0.9V7.5z"/>
			<path class="st0" d="M68.7,14.1c-0.3,0-0.6-0.1-0.8-0.3c-0.2-0.2-0.3-0.4-0.3-0.7V3.9c0-0.3,0.1-0.5,0.3-0.7
				c0.2-0.2,0.5-0.3,0.8-0.3c0.3,0,0.6,0.1,0.8,0.3c0.2,0.2,0.3,0.4,0.3,0.7v4.3c0,0.2,0.1,0.3,0.2,0.3c0,0,0.1,0,0.2-0.1l2.4-1.8
				c0.2-0.1,0.4-0.2,0.6-0.2c0.3,0,0.5,0.1,0.7,0.3c0.2,0.2,0.3,0.4,0.3,0.7c0,0.4-0.2,0.7-0.5,0.9l-2,1.3c-0.2,0.1-0.2,0.2-0.2,0.4
				c0,0.1,0.1,0.2,0.2,0.3l2.3,2c0.1,0.1,0.2,0.2,0.3,0.4c0,0.1,0.1,0.3,0.1,0.4c0,0.3-0.1,0.5-0.3,0.7c-0.2,0.2-0.5,0.3-0.7,0.3
				c-0.3,0-0.5-0.1-0.7-0.3L70,11.4c0,0-0.1-0.1-0.2-0.1c-0.1,0-0.1,0.1-0.1,0.2v1.6c0,0.3-0.1,0.5-0.3,0.7
				C69.2,14,69,14.1,68.7,14.1z"/>
			<path class="st0" d="M80.1,7.5c0-0.3,0.1-0.6,0.3-0.8c0.2-0.2,0.5-0.3,0.8-0.3c0.3,0,0.6,0.1,0.8,0.3c0.2,0.2,0.3,0.5,0.3,0.8V11
				c0,0.7-0.2,1.3-0.5,1.7c-0.3,0.5-0.8,0.8-1.3,1.1c-0.5,0.2-1.1,0.3-1.7,0.3c-0.6,0-1.2-0.1-1.7-0.3c-0.5-0.2-1-0.6-1.4-1.1
				c-0.4-0.5-0.5-1-0.5-1.7V7.5c0-0.3,0.1-0.6,0.3-0.8c0.2-0.2,0.5-0.3,0.8-0.3c0.3,0,0.6,0.1,0.8,0.3c0.2,0.2,0.3,0.5,0.3,0.8v3.4
				c0,0.3,0.1,0.6,0.4,0.9c0.3,0.2,0.6,0.3,1,0.3c0.4,0,0.8-0.1,1-0.3c0.3-0.2,0.4-0.5,0.4-0.9V7.5z"/>
			<path class="st0" d="M87.5,14.1c-0.7,0-1.4-0.2-2-0.5c-0.6-0.3-1.1-0.8-1.4-1.4c-0.4-0.6-0.5-1.3-0.5-2c0-0.8,0.2-1.4,0.5-2
				c0.4-0.6,0.8-1,1.4-1.3c0.6-0.3,1.2-0.5,2-0.5c0.7,0,1.4,0.2,2,0.5c0.6,0.3,1.1,0.8,1.4,1.3s0.5,1.2,0.5,2c0,0.7-0.2,1.4-0.5,2
				c-0.3,0.6-0.8,1-1.4,1.4C88.8,13.9,88.2,14.1,87.5,14.1z M87.5,12.1c0.5,0,0.9-0.2,1.3-0.5c0.3-0.4,0.5-0.8,0.5-1.3
				c0-0.5-0.2-1-0.5-1.3c-0.3-0.3-0.7-0.5-1.3-0.5c-0.5,0-0.9,0.2-1.3,0.5c-0.3,0.3-0.5,0.8-0.5,1.3c0,0.5,0.2,1,0.5,1.3
				C86.5,11.9,87,12.1,87.5,12.1z"/>
			<path class="st0" d="M93.8,14.1c-0.3,0-0.6-0.1-0.8-0.3c-0.2-0.2-0.3-0.4-0.3-0.7V3.9c0-0.3,0.1-0.5,0.3-0.7
				c0.2-0.2,0.5-0.3,0.8-0.3c0.3,0,0.6,0.1,0.8,0.3c0.2,0.2,0.3,0.4,0.3,0.7v4.3c0,0.2,0.1,0.3,0.2,0.3c0,0,0.1,0,0.2-0.1l2.4-1.8
				c0.2-0.1,0.4-0.2,0.6-0.2c0.3,0,0.5,0.1,0.7,0.3c0.2,0.2,0.3,0.4,0.3,0.7c0,0.4-0.2,0.7-0.5,0.9l-2,1.3c-0.2,0.1-0.2,0.2-0.2,0.4
				c0,0.1,0.1,0.2,0.2,0.3l2.3,2c0.1,0.1,0.2,0.2,0.3,0.4c0,0.1,0.1,0.3,0.1,0.4c0,0.3-0.1,0.5-0.3,0.7c-0.2,0.2-0.5,0.3-0.7,0.3
				c-0.3,0-0.5-0.1-0.7-0.3l-2.4-2.4c0,0-0.1-0.1-0.2-0.1c-0.1,0-0.1,0.1-0.1,0.2v1.6c0,0.3-0.1,0.5-0.3,0.7
				C94.3,14,94.1,14.1,93.8,14.1z"/>
			<path class="st0" d="M103.6,14.1c-1.1,0-2-0.4-2.7-1.1c-0.7-0.7-1-1.6-1-2.8c0-1.2,0.3-2.1,1-2.8c0.7-0.7,1.5-1,2.6-1
				c0.8,0,1.5,0.3,2,0.8c0.1-0.2,0.2-0.4,0.4-0.5c0.2-0.1,0.4-0.2,0.6-0.2c0.3,0,0.6,0.1,0.8,0.3c0.2,0.2,0.3,0.4,0.3,0.7v5.6
				c0,0.3-0.1,0.5-0.3,0.7c-0.2,0.2-0.5,0.3-0.8,0.3c-0.5,0-0.9-0.2-1-0.7C105,13.9,104.4,14.1,103.6,14.1z M103.8,12.1
				c0.5,0,1-0.2,1.3-0.5c0.3-0.4,0.5-0.8,0.5-1.3c0-0.5-0.2-1-0.5-1.3c-0.3-0.3-0.7-0.5-1.3-0.5c-0.5,0-0.9,0.2-1.3,0.5
				c-0.3,0.3-0.5,0.8-0.5,1.3c0,0.5,0.2,1,0.5,1.3C102.8,11.9,103.3,12.1,103.8,12.1z"/>
			<path class="st0" d="M52.4,29c-0.3,0-0.6-0.1-0.8-0.3c-0.2-0.2-0.3-0.5-0.3-0.7v-7.6c0-0.5,0.2-0.9,0.5-1.2
				c0.3-0.3,0.7-0.4,1.2-0.4h2.5c1,0,1.8,0.3,2.4,0.9c0.6,0.6,0.9,1.3,0.9,2.2c0,0.5-0.1,1-0.4,1.5c-0.3,0.5-0.7,0.8-1.2,1.1
				c0.2,0.1,0.4,0.3,0.6,0.5c0.2,0.2,0.3,0.4,0.5,0.7l0.8,1.9c0.1,0.2,0.1,0.4,0.1,0.5c0,0.3-0.1,0.5-0.3,0.7
				c-0.2,0.2-0.5,0.3-0.8,0.3c-0.2,0-0.4,0-0.5-0.1c-0.2-0.1-0.3-0.3-0.4-0.5l-0.9-2.3c-0.2-0.4-0.4-0.7-0.7-0.9
				c-0.3-0.2-0.6-0.3-1-0.3H54c-0.3,0-0.5,0.2-0.5,0.5v2.4c0,0.3-0.1,0.5-0.3,0.7C53,28.9,52.7,29,52.4,29z M53.9,23.1h1.5
				c0.4,0,0.7-0.1,1-0.3c0.2-0.2,0.4-0.5,0.4-0.9c0-0.4-0.1-0.7-0.4-0.9c-0.2-0.2-0.6-0.3-1-0.3h-1.5c-0.2,0-0.4,0.1-0.4,0.4v1.7
				C53.5,23,53.7,23.1,53.9,23.1z"/>
			<path class="st0" d="M65.5,22.4c0-0.3,0.1-0.6,0.3-0.8c0.2-0.2,0.5-0.3,0.8-0.3c0.3,0,0.6,0.1,0.8,0.3c0.2,0.2,0.3,0.5,0.3,0.8
				v3.5c0,0.7-0.2,1.3-0.5,1.7c-0.3,0.5-0.8,0.8-1.3,1.1c-0.5,0.2-1.1,0.3-1.7,0.3c-0.6,0-1.2-0.1-1.7-0.3c-0.5-0.2-1-0.6-1.4-1.1
				c-0.4-0.5-0.5-1-0.5-1.7v-3.5c0-0.3,0.1-0.6,0.3-0.8c0.2-0.2,0.5-0.3,0.8-0.3c0.3,0,0.6,0.1,0.8,0.3c0.2,0.2,0.3,0.5,0.3,0.8v3.4
				c0,0.3,0.1,0.6,0.4,0.9c0.3,0.2,0.6,0.3,1,0.3c0.4,0,0.8-0.1,1-0.3c0.3-0.2,0.4-0.5,0.4-0.9V22.4z"/>
			<path class="st0" d="M73.3,29c-0.7,0-1.4-0.2-1.9-0.7c-0.1,0.5-0.5,0.7-1,0.7c-0.3,0-0.6-0.1-0.8-0.3c-0.2-0.2-0.3-0.4-0.3-0.7
				v-9.2c0-0.3,0.1-0.5,0.3-0.7c0.2-0.2,0.5-0.3,0.8-0.3c0.3,0,0.6,0.1,0.8,0.3c0.2,0.2,0.3,0.4,0.3,0.7v3.2
				c0.6-0.5,1.2-0.8,1.9-0.8c1.1,0,2,0.3,2.6,1c0.7,0.7,1,1.6,1,2.8c0,1.2-0.3,2.1-1,2.8C75.4,28.6,74.5,29,73.3,29z M73.2,27
				c0.5,0,0.9-0.2,1.2-0.5c0.3-0.4,0.5-0.8,0.5-1.3c0-0.5-0.2-1-0.5-1.3c-0.3-0.3-0.7-0.5-1.2-0.5c-0.5,0-0.9,0.2-1.2,0.5
				c-0.3,0.3-0.5,0.8-0.5,1.3c0,0.5,0.2,1,0.5,1.3C72.3,26.8,72.7,27,73.2,27z"/>
			<path class="st0" d="M77.6,22.3c0-0.3,0.1-0.6,0.3-0.7c0.2-0.2,0.5-0.2,0.8-0.2c0.2,0,0.4,0.1,0.6,0.2c0.2,0.1,0.3,0.3,0.4,0.5
				l1.5,3.7c0.1,0.2,0.2,0.3,0.3,0.3c0.1,0,0.3-0.1,0.3-0.3l1.3-3.7c0.1-0.2,0.2-0.4,0.4-0.5c0.2-0.1,0.4-0.2,0.6-0.2
				c0.3,0,0.5,0.1,0.8,0.3c0.2,0.2,0.4,0.4,0.4,0.7c0,0.2,0,0.3-0.1,0.5l-3.9,8.9c-0.1,0.2-0.3,0.4-0.4,0.5
				c-0.2,0.1-0.4,0.2-0.5,0.2c-0.3,0-0.6-0.1-0.8-0.3c-0.2-0.2-0.4-0.5-0.4-0.7c0-0.1,0-0.3,0.1-0.4l1.3-2.4
				c-0.3-0.1-0.5-0.3-0.7-0.6l-2.4-5.2C77.6,22.6,77.6,22.4,77.6,22.3z"/>
			<path class="st0" d="M87.5,20.2c-0.3,0-0.6-0.1-0.9-0.3c-0.2-0.2-0.4-0.5-0.4-0.9c0-0.3,0.1-0.6,0.4-0.8c0.2-0.2,0.5-0.3,0.9-0.3
				c0.3,0,0.6,0.1,0.9,0.3c0.2,0.2,0.4,0.5,0.4,0.8c0,0.3-0.1,0.6-0.4,0.9C88.1,20.1,87.8,20.2,87.5,20.2z M87.5,29
				c-0.3,0-0.6-0.1-0.8-0.3c-0.2-0.2-0.3-0.4-0.3-0.7v-5.6c0-0.3,0.1-0.5,0.3-0.7c0.2-0.2,0.5-0.3,0.8-0.3c0.3,0,0.6,0.1,0.8,0.3
				c0.2,0.2,0.3,0.4,0.3,0.7V28c0,0.3-0.1,0.5-0.3,0.7C88,28.9,87.8,29,87.5,29z"/>
			<path class="st0" d="M93.1,29c-1.1,0-2-0.2-2.8-0.7c-0.1-0.1-0.3-0.2-0.3-0.4c-0.1-0.1-0.1-0.3-0.1-0.4c0-0.3,0.1-0.5,0.3-0.8
				c0.2-0.2,0.4-0.3,0.7-0.3c0.1,0,0.3,0,0.4,0.1c0.3,0.1,0.6,0.2,1,0.3c0.4,0.1,0.7,0.1,1,0.1c0.6,0,0.9-0.1,0.9-0.4
				c0-0.2-0.1-0.3-0.2-0.4c-0.1-0.1-0.5-0.2-1-0.3c-0.2,0-0.5,0-0.8-0.1c-0.3,0-0.7-0.1-1-0.3c-0.3-0.1-0.6-0.4-0.8-0.6
				c-0.2-0.3-0.3-0.7-0.3-1.1c0-0.7,0.3-1.3,0.8-1.8c0.6-0.4,1.3-0.6,2.3-0.6c0.5,0,1.1,0.1,1.5,0.2c0.5,0.1,0.9,0.3,1.1,0.5
				c0.2,0.2,0.3,0.5,0.3,0.7c0,0.2-0.1,0.5-0.3,0.7c-0.2,0.2-0.4,0.3-0.7,0.3c-0.1,0-0.3,0-0.4-0.1c-0.2-0.1-0.5-0.2-0.8-0.3
				c-0.3-0.1-0.6-0.1-0.9-0.1c-0.6,0-0.9,0.1-0.9,0.4c0,0.1,0.1,0.2,0.2,0.3c0.1,0.1,0.4,0.2,0.9,0.2c0.3,0,0.6,0.1,1,0.1
				c0.4,0.1,0.7,0.2,1.1,0.3c0.3,0.1,0.6,0.4,0.9,0.7c0.2,0.3,0.3,0.7,0.3,1.3c0,0.7-0.3,1.3-0.9,1.8C94.8,28.8,94,29,93.1,29z"/>
			<path class="st0" d="M100.8,29c-0.7,0-1.3-0.2-1.8-0.6c-0.5-0.4-0.7-1-0.7-1.9v-2.7c0-0.2-0.1-0.2-0.2-0.2h-0.4
				c-0.3,0-0.5-0.1-0.7-0.3c-0.1-0.2-0.2-0.4-0.2-0.7c0-0.3,0.1-0.5,0.2-0.7c0.1-0.2,0.4-0.3,0.7-0.3h0.4c0.2,0,0.2-0.1,0.2-0.2
				v-1.8c0-0.3,0.1-0.5,0.3-0.7c0.2-0.2,0.5-0.3,0.8-0.3c0.3,0,0.6,0.1,0.8,0.3c0.2,0.2,0.3,0.4,0.3,0.7v1.8c0,0.2,0.1,0.2,0.2,0.2
				h0.9c0.3,0,0.5,0.1,0.7,0.3c0.2,0.2,0.3,0.4,0.3,0.7c0,0.3-0.1,0.5-0.3,0.7c-0.2,0.2-0.4,0.3-0.7,0.3h-0.9
				c-0.2,0-0.2,0.1-0.2,0.2v2.3c0,0.3,0.1,0.5,0.2,0.6c0.1,0.1,0.2,0.2,0.4,0.2c0.1,0,0.2,0,0.4-0.1c0.2,0,0.3-0.1,0.4-0.1
				c0.3,0,0.5,0.1,0.7,0.3c0.2,0.2,0.3,0.4,0.3,0.7c0,0.2-0.1,0.4-0.2,0.6c-0.1,0.2-0.3,0.3-0.6,0.4c-0.2,0.1-0.4,0.1-0.6,0.1
				C101.2,29,101,29,100.8,29z"/>
			<path class="st0" d="M105.2,29c-0.3,0-0.6-0.1-0.8-0.3c-0.2-0.2-0.3-0.5-0.3-0.8v-8.3c0-0.3,0.1-0.6,0.3-0.8
				c0.2-0.2,0.5-0.3,0.8-0.3c0.3,0,0.6,0.1,0.8,0.3c0.2,0.2,0.3,0.5,0.3,0.8v2.2c0,0.3,0.1,0.4,0.2,0.4c0.1,0,0.2-0.1,0.3-0.2
				l2.9-3.1c0.3-0.3,0.5-0.4,0.8-0.4c0.3,0,0.6,0.1,0.8,0.3c0.2,0.2,0.3,0.5,0.3,0.8c0,0.3-0.1,0.5-0.3,0.7l-2.9,2.9l3.3,3.8
				c0.1,0.1,0.2,0.2,0.2,0.4c0,0.1,0,0.3,0,0.4c0,0.3-0.1,0.6-0.3,0.8c-0.2,0.2-0.5,0.3-0.8,0.3c-0.3,0-0.6-0.1-0.9-0.4l-3.1-3.8
				l-0.2,0.2c-0.2,0.2-0.3,0.4-0.3,0.5c0,0.2-0.1,0.4-0.1,0.6v1.8c0,0.3-0.1,0.6-0.3,0.8C105.8,28.9,105.5,29,105.2,29z"/>
			<path class="st0" d="M116.3,29c-1.1,0-2-0.4-2.7-1.1c-0.7-0.7-1-1.6-1-2.8c0-1.2,0.3-2.1,1-2.8c0.7-0.7,1.5-1,2.6-1
				c0.8,0,1.5,0.3,2,0.8c0.1-0.2,0.2-0.4,0.4-0.5c0.2-0.1,0.4-0.2,0.6-0.2c0.3,0,0.6,0.1,0.8,0.3c0.2,0.2,0.3,0.4,0.3,0.7V28
				c0,0.3-0.1,0.5-0.3,0.7c-0.2,0.2-0.5,0.3-0.8,0.3c-0.5,0-0.9-0.2-1-0.7C117.7,28.7,117.1,29,116.3,29z M116.5,27
				c0.5,0,1-0.2,1.3-0.5c0.3-0.4,0.5-0.8,0.5-1.3c0-0.5-0.2-1-0.5-1.3c-0.3-0.3-0.7-0.5-1.3-0.5c-0.5,0-0.9,0.2-1.3,0.5
				c-0.3,0.3-0.5,0.8-0.5,1.3c0,0.5,0.2,1,0.5,1.3C115.6,26.8,116,27,116.5,27z"/>
			<path class="st0" d="M123.2,20.2c-0.3,0-0.6-0.1-0.9-0.3c-0.2-0.2-0.4-0.5-0.4-0.9c0-0.3,0.1-0.6,0.4-0.8
				c0.2-0.2,0.5-0.3,0.9-0.3c0.3,0,0.6,0.1,0.9,0.3c0.2,0.2,0.4,0.5,0.4,0.8c0,0.3-0.1,0.6-0.4,0.9
				C123.9,20.1,123.6,20.2,123.2,20.2z M123.2,29c-0.3,0-0.6-0.1-0.8-0.3c-0.2-0.2-0.3-0.4-0.3-0.7v-5.6c0-0.3,0.1-0.5,0.3-0.7
				c0.2-0.2,0.5-0.3,0.8-0.3c0.3,0,0.6,0.1,0.8,0.3c0.2,0.2,0.3,0.4,0.3,0.7V28c0,0.3-0.1,0.5-0.3,0.7C123.8,28.9,123.5,29,123.2,29
				z"/>
			<path class="st0" d="M129.2,32.3c-0.5,0-0.9,0-1.3-0.1c-0.4-0.1-0.8-0.2-1.2-0.4c-0.4-0.2-0.6-0.5-0.6-1c0-0.3,0.1-0.5,0.3-0.7
				c0.2-0.2,0.4-0.3,0.7-0.3c0.2,0,0.4,0,0.6,0.1c0.3,0.1,0.5,0.3,0.8,0.3c0.3,0.1,0.6,0.1,0.9,0.1c0.6,0,1.1-0.1,1.4-0.4
				c0.3-0.3,0.5-0.7,0.5-1.1v-0.6c-0.5,0.5-1.2,0.8-2,0.8c-1.1,0-2-0.4-2.7-1.1c-0.7-0.7-1-1.6-1-2.8c0-1.2,0.3-2.1,1-2.8
				c0.7-0.7,1.5-1,2.6-1c0.8,0,1.5,0.3,2.1,0.9c0-0.2,0.2-0.4,0.4-0.6c0.2-0.1,0.4-0.2,0.7-0.2c0.3,0,0.6,0.1,0.8,0.3
				c0.2,0.2,0.3,0.4,0.3,0.7v6.4c0,1.1-0.4,1.9-1.1,2.5C131.6,32,130.6,32.3,129.2,32.3z M129.5,27c0.5,0,0.9-0.2,1.2-0.5
				c0.3-0.4,0.5-0.8,0.5-1.3c0-0.5-0.2-1-0.5-1.3c-0.3-0.3-0.7-0.5-1.2-0.5c-0.5,0-0.9,0.2-1.2,0.5c-0.3,0.3-0.5,0.8-0.5,1.3
				c0,0.5,0.2,1,0.5,1.3C128.5,26.8,129,27,129.5,27z"/>
			<path class="st0" d="M136.2,20.2c-0.3,0-0.6-0.1-0.9-0.3c-0.2-0.2-0.4-0.5-0.4-0.9c0-0.3,0.1-0.6,0.4-0.8
				c0.2-0.2,0.5-0.3,0.9-0.3c0.3,0,0.6,0.1,0.9,0.3c0.2,0.2,0.4,0.5,0.4,0.8c0,0.3-0.1,0.6-0.4,0.9
				C136.8,20.1,136.5,20.2,136.2,20.2z M136.2,29c-0.3,0-0.6-0.1-0.8-0.3c-0.2-0.2-0.3-0.4-0.3-0.7v-5.6c0-0.3,0.1-0.5,0.3-0.7
				c0.2-0.2,0.5-0.3,0.8-0.3c0.3,0,0.6,0.1,0.8,0.3c0.2,0.2,0.3,0.4,0.3,0.7V28c0,0.3-0.1,0.5-0.3,0.7C136.8,28.9,136.5,29,136.2,29
				z"/>
			<path class="st0" d="M143,23.7c0-1.6,0.3-2.9,0.9-3.8c0.6-0.9,1.5-1.4,2.8-1.4c1.2,0,2.2,0.5,2.8,1.4c0.6,0.9,0.9,2.2,0.9,3.8
				c0,1.6-0.3,2.9-0.9,3.9c-0.6,1-1.6,1.5-2.8,1.5c-1.2,0-2.1-0.5-2.8-1.4S143,25.3,143,23.7z M145.1,23.7c0,1.1,0.1,1.9,0.3,2.4
				c0.2,0.5,0.6,0.8,1.2,0.8c0.6,0,1-0.3,1.2-0.8c0.2-0.6,0.3-1.4,0.3-2.4c0-1.1-0.1-1.8-0.3-2.3c-0.2-0.5-0.6-0.7-1.2-0.7
				c-0.6,0-1,0.2-1.2,0.7C145.3,21.8,145.1,22.6,145.1,23.7z"/>
			<path class="st0" d="M155.1,29c-0.8,0-1.5-0.2-2.2-0.5c-0.6-0.3-1.1-0.7-1.3-1.3c-0.1-0.2-0.1-0.4-0.1-0.5c0-0.3,0.1-0.6,0.4-0.7
				c0.3-0.2,0.5-0.3,0.8-0.3c0.2,0,0.3,0,0.5,0.1c0.1,0.1,0.3,0.2,0.3,0.3c0.3,0.6,0.9,1,1.7,1c0.4,0,0.8-0.1,1.1-0.4
				c0.3-0.3,0.4-0.6,0.4-1c0-1-0.7-1.4-2-1.4c-0.3,0-0.5-0.1-0.7-0.2c-0.2-0.2-0.3-0.4-0.3-0.7c0-0.3,0.1-0.5,0.3-0.7
				c0.2-0.2,0.4-0.2,0.7-0.2c0.6,0,1-0.1,1.3-0.2c0.2-0.2,0.4-0.5,0.4-0.9c0-0.3-0.1-0.6-0.3-0.7c-0.2-0.2-0.5-0.2-0.7-0.2
				c-0.3,0-0.5,0.1-0.8,0.2c-0.2,0.1-0.4,0.3-0.6,0.5c-0.1,0.2-0.2,0.3-0.4,0.3c-0.1,0.1-0.3,0.1-0.5,0.1c-0.3,0-0.5-0.1-0.8-0.3
				c-0.2-0.2-0.3-0.4-0.3-0.7c0-0.1,0-0.2,0.1-0.3c0.3-0.5,0.7-0.9,1.3-1.2c0.6-0.3,1.2-0.4,1.9-0.4c1,0,1.8,0.3,2.4,0.8
				c0.6,0.5,0.9,1.2,0.9,2c0,0.8-0.3,1.4-0.9,2c0.4,0.2,0.8,0.5,1,1c0.3,0.4,0.4,0.9,0.4,1.4c0,1-0.4,1.8-1.1,2.4
				C157.1,28.7,156.2,29,155.1,29z"/>
		</g>
	</g>
</g>
</svg>
