<?xml version="1.0" encoding="utf-8"?>
<!-- Generator: Adobe Illustrator 26.5.0, SVG Export Plug-In . SVG Version: 6.00 Build 0)  -->
<svg version="1.1" id="White" xmlns="http://www.w3.org/2000/svg" xmlns:xlink="http://www.w3.org/1999/xlink" x="0px" y="0px"
	 viewBox="0 0 400 400" style="enable-background:new 0 0 400 400;" xml:space="preserve">
<style type="text/css">
	.st0{fill:#FFFFFF;}
</style>
<g>
	<g>
		<path class="st0" d="M200,0C89.5,0,0,89.5,0,200s89.5,200,200,200s200-89.5,200-200S310.5,0,200,0z M309.8,157.3
			c0.1,2.2,0.1,4.5,0.1,6.8c0,70.1-53.3,150.9-150.9,150.9c-29.9,0-57.9-8.8-81.1-24c4.2,0.5,8.4,0.8,12.7,0.8
			c24.9,0,47.7-8.5,65.9-22.7c-23.2-0.4-42.8-15.7-49.5-36.8c3.3,0.7,6.6,1,10,1c4.8,0,9.6-0.7,14-1.9c-24.3-5-42.6-26.3-42.6-52
			c0-0.2,0-0.4,0-0.7c7.2,4,15.3,6.4,24,6.6c-14.3-9.5-23.6-25.7-23.6-44.1c0-9.7,2.6-18.8,7.1-26.6c26.2,32.1,65.2,53.2,109.3,55.4
			c-1-3.9-1.4-7.9-1.4-12.1c0-29.3,23.8-53,53-53c15.3,0,29,6.4,38.7,16.7c12.1-2.4,23.4-6.8,33.7-12.9c-4,12.4-12.3,22.8-23.3,29.4
			c10.8-1.3,21-4.2,30.5-8.4C329.2,140.5,320.2,149.8,309.8,157.3z"/>
	</g>
</g>
</svg>
