<?xml version="1.0" encoding="utf-8"?>
<!-- Generator: Adobe Illustrator 26.5.0, SVG Export Plug-In . SVG Version: 6.00 Build 0)  -->
<svg version="1.1" id="レイヤー_1" xmlns="http://www.w3.org/2000/svg" xmlns:xlink="http://www.w3.org/1999/xlink" x="0px"
	 y="0px" viewBox="0 0 540 540" style="enable-background:new 0 0 540 540;" xml:space="preserve">
<style type="text/css">
	.st0{fill-rule:evenodd;clip-rule:evenodd;fill:#FFFFFF;}
</style>
<path class="st0" d="M270,1C120.9,1,0,121.9,0,271c0,119.3,77.4,220.5,184.7,256.2c13.5,2.5,18.4-5.9,18.4-13
	c0-6.4-0.2-23.4-0.4-45.9c-75.1,16.3-91-36.2-91-36.2c-12.3-31.2-30-39.5-30-39.5c-24.5-16.8,1.9-16.4,1.9-16.4
	C110.7,378.1,125,404,125,404c24.1,41.3,63.2,29.3,78.6,22.4c2.5-17.4,9.4-29.3,17.1-36.1c-60-6.8-123-30-123-133.4
	c0-29.5,10.5-53.6,27.8-72.5c-2.8-6.8-12-34.3,2.6-71.5c0,0,22.7-7.3,74.2,27.7c21.5-6,44.6-9,67.6-9.1c22.9,0.1,46,3.1,67.6,9.1
	c51.5-34.9,74.2-27.7,74.2-27.7c14.7,37.2,5.5,64.6,2.7,71.5c17.3,18.9,27.8,43,27.8,72.5c0,103.7-63.1,126.5-123.3,133.2
	c9.7,8.3,18.3,24.8,18.3,50c0,36.1-0.3,65.2-0.3,74.1c0,7.2,4.9,15.6,18.6,13C462.7,491.4,540,390.3,540,271
	C540,121.9,419.1,1,270,1z"/>
</svg>
