<?xml version="1.0" encoding="utf-8"?>
<!-- Generator: Adobe Illustrator 26.4.1, SVG Export Plug-In . SVG Version: 6.00 Build 0)  -->
<svg version="1.1" id="レイヤー_1" xmlns="http://www.w3.org/2000/svg" xmlns:xlink="http://www.w3.org/1999/xlink" x="0px"
	 y="0px" viewBox="0 0 540 444" style="enable-background:new 0 0 540 444;" xml:space="preserve">
<style type="text/css">
	.st0{fill-rule:evenodd;clip-rule:evenodd;fill:#FFFFFF;}
</style>
<path class="st0" d="M525.1,13.7c-21.4,12.7-45.1,21.9-70.3,26.9c-20.2-21.5-49-35-80.9-35c-61.2,0-110.8,49.6-110.8,110.7
	c0,8.7,1,17.1,2.8,25.2c-92-4.6-173.7-48.7-228.3-115.7c-9.6,16.3-15,35.3-15,55.6c0,38.4,19.6,72.3,49.3,92.1
	c-18.2-0.6-35.3-5.5-50.2-13.8c0,0.5,0,0.9,0,1.4c0,53.6,38.2,98.4,88.9,108.5c-9.3,2.5-19.1,3.9-29.2,3.9c-7.2,0-14.1-0.7-20.9-2
	c14.1,44,55,76,103.5,76.9c-37.9,29.7-85.7,47.4-137.6,47.4c-8.9,0-17.7-0.5-26.4-1.5C49,425.7,107.2,444,169.8,444
	C373.6,444,485,275.3,485,129c0-4.8-0.1-9.6-0.3-14.3c21.6-15.6,40.5-35.1,55.3-57.3c-19.8,8.8-41.2,14.7-63.6,17.4
	C499.2,61.2,516.8,39.5,525.1,13.7L525.1,13.7z"/>
</svg>
