<svg id="レイヤー_1" data-name="レイヤー 1" xmlns="http://www.w3.org/2000/svg" viewBox="0 0 830 670"><defs><style>.cls-1{fill:#fff;}</style></defs><title>アートボード 3</title><path class="cls-1" d="M825.61,244.39l-240-240A15,15,0,0,0,575,0H255a15,15,0,0,0-10.61,4.39l-240,240a15,15,0,0,0,0,21.21l400,400a15,15,0,0,0,21.21,0l80-80a15,15,0,0,0,0-21.21L196.21,255,415,36.21,473.79,95,324.39,244.39a15,15,0,0,0,0,21.21l80,80a15,15,0,0,0,21.21,0L575,196.21,633.79,255,484.39,404.39a15,15,0,0,0,0,21.21l80,80a15,15,0,0,0,21.21,0l240-240A15,15,0,0,0,825.61,244.39Zm-661.21,0a15,15,0,0,0,0,21.21L473.79,575,415,633.79,36.21,255l225-225H378.79ZM575,473.79,516.21,415,665.61,265.61a15,15,0,0,0,0-21.21l-80-80a15,15,0,0,0-21.21,0L415,313.79,356.21,255,505.61,105.61a15,15,0,0,0,0-21.21L451.21,30H568.79l225,225Z"/></svg>