<?xml version="1.0" encoding="utf-8"?>
<!-- Generator: Adobe Illustrator 26.4.1, SVG Export Plug-In . SVG Version: 6.00 Build 0)  -->
<svg version="1.1" id="レイヤー_1" xmlns="http://www.w3.org/2000/svg" xmlns:xlink="http://www.w3.org/1999/xlink" x="0px"
	 y="0px" viewBox="0 0 1920 1390" style="enable-background:new 0 0 1920 1390;" xml:space="preserve">
<style type="text/css">
	.st0{fill-opacity:0.1;}
	.st1{clip-path:url(#SVGID_00000158737921533811382250000006865283365669043106_);}
	.st2{fill:#FFFFFF;fill-opacity:0.1;}
</style>
<path class="st0" d="M0,0h1390L0,1390V0z"/>
<g>
	<defs>
		<rect id="SVGID_1_" x="1027" y="184" width="595" height="480"/>
	</defs>
	<clipPath id="SVGID_00000136378278930476370240000001641444102525582980_">
		<use xlink:href="#SVGID_1_"  style="overflow:visible;"/>
	</clipPath>
	<g style="clip-path:url(#SVGID_00000136378278930476370240000001641444102525582980_);">
		<path class="st2" d="M1618.8,359.1l-172-171.9c-1-1-2.2-1.8-3.5-2.3c-1.3-0.5-2.7-0.8-4.1-0.8h-229.4c-1.4,0-2.8,0.3-4.1,0.8
			c-1.3,0.5-2.5,1.3-3.5,2.3l-172,171.9c-2,2-3.2,4.7-3.2,7.6c0,2.8,1.1,5.6,3.2,7.6l286.7,286.6c2,2,4.8,3.1,7.6,3.1
			c2.8,0,5.6-1.1,7.6-3.1l57.3-57.3c2-2,3.2-4.7,3.2-7.6c0-2.9-1.1-5.6-3.2-7.6l-221.8-221.7l156.8-156.7l42.1,42.1l-107.1,107
			c-2,2-3.1,4.7-3.1,7.6c0,2.8,1.1,5.6,3.1,7.6l57.3,57.3c2,2,4.8,3.1,7.6,3.1c2.8,0,5.6-1.1,7.6-3.1l107.1-107l42.1,42.1
			l-107.1,107c-2,2-3.2,4.7-3.2,7.6c0,2.8,1.1,5.6,3.2,7.6l57.3,57.3c2,2,4.8,3.1,7.6,3.1c2.9,0,5.6-1.1,7.6-3.1l172-171.9
			c2-2,3.2-4.7,3.2-7.6C1622,363.8,1620.9,361.1,1618.8,359.1L1618.8,359.1z M1144.8,359.1c-2,2-3.2,4.7-3.2,7.6
			c0,2.8,1.1,5.6,3.2,7.6l221.8,221.7l-42.1,42.1L1053,366.7l161.3-161.2h84.3L1144.8,359.1z M1439.2,523.4l-42.1-42.1l107.1-107
			c2-2,3.2-4.7,3.2-7.6c0-2.8-1.1-5.6-3.2-7.6l-57.3-57.3c-2-2-4.8-3.1-7.6-3.1c-2.8,0-5.6,1.1-7.6,3.1l-107.1,107l-42.1-42.1
			l107.1-107c2-2,3.1-4.7,3.1-7.6c0-2.8-1.1-5.6-3.1-7.6l-39-39h84.3L1596,366.7L1439.2,523.4z"/>
	</g>
</g>
</svg>
