<?xml version="1.0" encoding="utf-8"?>
<!-- Generator: Adobe Illustrator 26.4.1, SVG Export Plug-In . SVG Version: 6.00 Build 0)  -->
<svg version="1.1" id="レイヤー_1" xmlns="http://www.w3.org/2000/svg" xmlns:xlink="http://www.w3.org/1999/xlink" x="0px"
	 y="0px" viewBox="0 0 375 610" style="enable-background:new 0 0 375 610;" xml:space="preserve">
<style type="text/css">
	.st0{clip-path:url(#SVGID_00000143608679760540122230000004782815628201170317_);}
	.st1{fill-opacity:0.1;}
	.st2{clip-path:url(#SVGID_00000087386597454548259570000003794399736285880194_);}
	.st3{fill:#FFFFFF;fill-opacity:0.5;}
</style>
<g>
	<defs>
		<rect id="SVGID_1_" width="375" height="610"/>
	</defs>
	<clipPath id="SVGID_00000147197527855448283070000001162488254726936979_">
		<use xlink:href="#SVGID_1_"  style="overflow:visible;"/>
	</clipPath>
	<g style="clip-path:url(#SVGID_00000147197527855448283070000001162488254726936979_);">
		<path class="st1" d="M0,0h375v236L0,610V0z"/>
		<g>
			<defs>
				<rect id="SVGID_00000067954129978749654750000008261043391559966369_" x="178" y="365" width="229" height="185"/>
			</defs>
			<clipPath id="SVGID_00000164473208171730299910000005629824779153042621_">
				<use xlink:href="#SVGID_00000067954129978749654750000008261043391559966369_"  style="overflow:visible;"/>
			</clipPath>
			<g style="clip-path:url(#SVGID_00000164473208171730299910000005629824779153042621_);">
				<path class="st3" d="M405.8,432.5l-66.2-66.3c-0.4-0.4-0.8-0.7-1.3-0.9c-0.5-0.2-1-0.3-1.6-0.3h-88.3c-0.5,0-1.1,0.1-1.6,0.3
					s-1,0.5-1.3,0.9l-66.2,66.3c-0.8,0.8-1.2,1.8-1.2,2.9s0.4,2.2,1.2,2.9l110.4,110.4c0.8,0.8,1.8,1.2,2.9,1.2
					c1.1,0,2.2-0.4,2.9-1.2l22.1-22.1c0.8-0.8,1.2-1.8,1.2-2.9c0-1.1-0.4-2.2-1.2-2.9l-85.4-85.4l60.4-60.4l16.2,16.2l-41.2,41.2
					c-0.8,0.8-1.2,1.8-1.2,2.9s0.4,2.2,1.2,2.9l22.1,22.1c0.8,0.8,1.8,1.2,2.9,1.2c1.1,0,2.2-0.4,2.9-1.2l41.2-41.2l16.2,16.2
					l-41.2,41.2c-0.8,0.8-1.2,1.8-1.2,2.9c0,1.1,0.4,2.2,1.2,2.9l22.1,22.1c0.8,0.8,1.8,1.2,2.9,1.2c1.1,0,2.1-0.4,2.9-1.2
					l66.2-66.3c0.8-0.8,1.2-1.8,1.2-2.9C407,434.3,406.6,433.3,405.8,432.5L405.8,432.5z M223.4,432.5c-0.8,0.8-1.2,1.8-1.2,2.9
					s0.4,2.2,1.2,2.9l85.4,85.4L292.5,540L188,435.4l62.1-62.1h32.4L223.4,432.5z M336.6,495.8l-16.2-16.2l41.2-41.2
					c0.8-0.8,1.2-1.8,1.2-2.9c0-1.1-0.4-2.2-1.2-2.9l-22.1-22.1c-0.8-0.8-1.8-1.2-2.9-1.2c-1.1,0-2.1,0.4-2.9,1.2l-41.2,41.2
					l-16.2-16.2l41.2-41.2c0.8-0.8,1.2-1.8,1.2-2.9c0-1.1-0.4-2.2-1.2-2.9l-15-15h32.4l62.1,62.1L336.6,495.8z"/>
			</g>
		</g>
	</g>
</g>
</svg>
