<?xml version="1.0" encoding="utf-8"?>
<!-- Generator: Adobe Illustrator 26.4.1, SVG Export Plug-In . SVG Version: 6.00 Build 0)  -->
<svg version="1.1" id="レイヤー_1" xmlns="http://www.w3.org/2000/svg" xmlns:xlink="http://www.w3.org/1999/xlink" x="0px"
	 y="0px" viewBox="0 0 375 320" style="enable-background:new 0 0 375 320;" xml:space="preserve">
<style type="text/css">
	.st0{clip-path:url(#SVGID_00000114759662131367118300000009733549517094817923_);}
	.st1{fill-opacity:0.1;}
	.st2{clip-path:url(#SVGID_00000177442600061282198100000015479741334480638118_);}
	.st3{fill:#FFFFFF;fill-opacity:0.2;}
</style>
<g>
	<defs>
		<rect id="SVGID_1_" width="375" height="320"/>
	</defs>
	<clipPath id="SVGID_00000127763603349686331670000006885165318967395236_">
		<use xlink:href="#SVGID_1_"  style="overflow:visible;"/>
	</clipPath>
	<g style="clip-path:url(#SVGID_00000127763603349686331670000006885165318967395236_);">
		<path class="st1" d="M0,0h320L0,320V0z"/>
		<g>
			<defs>
				<rect id="SVGID_00000162320053789796820020000002970556991698659226_" x="177" y="80" width="211" height="171"/>
			</defs>
			<clipPath id="SVGID_00000086649390543827451930000012022712371619330177_">
				<use xlink:href="#SVGID_00000162320053789796820020000002970556991698659226_"  style="overflow:visible;"/>
			</clipPath>
			<g style="clip-path:url(#SVGID_00000086649390543827451930000012022712371619330177_);">
				<path class="st3" d="M386.9,142.4l-61-61.3c-0.4-0.4-0.8-0.6-1.2-0.8c-0.5-0.2-1-0.3-1.5-0.3h-81.3c-0.5,0-1,0.1-1.5,0.3
					c-0.5,0.2-0.9,0.5-1.2,0.8l-61,61.3c-0.7,0.7-1.1,1.7-1.1,2.7s0.4,2,1.1,2.7l101.7,102.1c0.7,0.7,1.7,1.1,2.7,1.1
					c1,0,2-0.4,2.7-1.1l20.3-20.4c0.7-0.7,1.1-1.7,1.1-2.7c0-1-0.4-2-1.1-2.7l-78.7-79l55.6-55.8l14.9,15l-38,38.1
					c-0.7,0.7-1.1,1.7-1.1,2.7s0.4,2,1.1,2.7l20.3,20.4c0.7,0.7,1.7,1.1,2.7,1.1c1,0,2-0.4,2.7-1.1l38-38.1l14.9,15l-38,38.1
					c-0.7,0.7-1.1,1.7-1.1,2.7c0,1,0.4,2,1.1,2.7l20.3,20.4c0.7,0.7,1.7,1.1,2.7,1.1c1,0,2-0.4,2.7-1.1l61-61.3
					c0.7-0.7,1.1-1.7,1.1-2.7C388,144.1,387.6,143.1,386.9,142.4L386.9,142.4z M218.8,142.4c-0.7,0.7-1.1,1.7-1.1,2.7s0.4,2,1.1,2.7
					l78.7,79l-14.9,15l-96.3-96.7l57.2-57.4h29.9L218.8,142.4z M323.2,200.9l-14.9-15l38-38.1c0.7-0.7,1.1-1.7,1.1-2.7
					c0-1-0.4-2-1.1-2.7L325.9,122c-0.7-0.7-1.7-1.1-2.7-1.1c-1,0-2,0.4-2.7,1.1l-38,38.1l-14.9-15l38-38.1c0.7-0.7,1.1-1.7,1.1-2.7
					c0-1-0.4-2-1.1-2.7l-13.8-13.9h29.9l57.2,57.4L323.2,200.9z"/>
			</g>
		</g>
	</g>
</g>
</svg>
